<?xml version="1.0" encoding="UTF-8"?>
<!DOCTYPE svg PUBLIC "-//W3C//DTD SVG 1.1//EN" "http://www.w3.org/Graphics/SVG/1.1/DTD/svg11.dtd">
<!-- Creator: CorelDRAW 2021 (64 Bit) -->
<svg xmlns="http://www.w3.org/2000/svg" xml:space="preserve" width="998px" height="314px" version="1.1" style="shape-rendering:geometricPrecision; text-rendering:geometricPrecision; image-rendering:optimizeQuality; fill-rule:evenodd; clip-rule:evenodd"
viewBox="0 0 783.31 246.27"
 xmlns:xlink="http://www.w3.org/1999/xlink"
 xmlns:xodm="http://www.corel.com/coreldraw/odm/2003">
 <defs>
  <style type="text/css">
   <![CDATA[
    .str3 {stroke:#F076A2;stroke-width:2.24;stroke-miterlimit:22.9256}
    .str1 {stroke:#FAAB43;stroke-width:2.24;stroke-miterlimit:22.9256}
    .str2 {stroke:#F076A2;stroke-width:1.12;stroke-miterlimit:22.9256;stroke-dasharray:1.120000 16.790000}
    .str0 {stroke:#F076A2;stroke-width:1.12;stroke-miterlimit:22.9256;stroke-dasharray:2.240000 5.600000}
    .fil5 {fill:none}
    .fil2 {fill:#42AFFA}
    .fil4 {fill:#AFFA42}
    .fil7 {fill:#42AFFA;fill-rule:nonzero}
    .fil8 {fill:#AFFA42;fill-rule:nonzero}
    .fil9 {fill:#F076A2;fill-rule:nonzero}
    .fil6 {fill:#FAAB43;fill-rule:nonzero}
    .fil3 {fill:white;fill-rule:nonzero}
    .fil0 {fill:#42AFFA;fill-opacity:0.149020}
    .fil1 {fill:#AFFA42;fill-opacity:0.149020}
   ]]>
  </style>
 </defs>
 <g id="Camada_x0020_1">
  <metadata id="CorelCorpID_0Corel-Layer"/>
  <polygon class="fil0" points="118.51,197.52 118.51,78.54 753.07,78.54 753.07,197.52 "/>
  <polygon class="fil1" points="118.51,78.54 118.51,38.88 753.07,38.88 753.07,78.54 "/>
  <rect class="fil2" x="118.51" y="157.86" width="46.72" height="39.66" rx="1.21" ry="6.08"/>
  <rect class="fil2" x="165.23" y="118.2" width="33.57" height="39.66" rx="0.87" ry="6.08"/>
  <rect class="fil2" x="198.8" y="78.54" width="127.9" height="39.66" rx="3.3" ry="6.08"/>
  <rect class="fil2" x="449.63" y="118.2" width="105.11" height="39.66" rx="2.71" ry="6.08"/>
  <rect class="fil2" x="554.74" y="78.54" width="79.32" height="39.66" rx="2.05" ry="6.08"/>
  <path class="fil3" d="M146.62 185.46l-9.52 0 -1.82 5.41 -5.77 0 9.81 -26.37 5.04 0 9.87 26.37 -5.78 0 -1.83 -5.41zm-8.06 -4.42l6.6 0 -3.32 -9.87 -3.28 9.87z"/>
  <path class="fil3" d="M172.22 151.21l0 -26.37 9.23 0c3.2,0 5.63,0.62 7.28,1.85 1.66,1.22 2.49,3.02 2.49,5.39 0,1.29 -0.34,2.43 -1,3.41 -0.66,0.99 -1.59,1.71 -2.77,2.17 1.35,0.34 2.41,1.02 3.19,2.04 0.78,1.03 1.17,2.28 1.17,3.77 0,2.53 -0.81,4.45 -2.42,5.75 -1.62,1.31 -3.93,1.97 -6.92,1.99l-10.25 0zm5.43 -11.46l0 7.09 4.65 0c1.28,0 2.29,-0.31 3,-0.91 0.72,-0.61 1.08,-1.45 1.08,-2.52 0,-2.4 -1.25,-3.62 -3.75,-3.66l-4.98 0zm0 -3.85l4.02 0c2.74,-0.05 4.11,-1.14 4.11,-3.28 0,-1.19 -0.34,-2.05 -1.04,-2.58 -0.69,-0.52 -1.79,-0.78 -3.29,-0.78l-3.8 0 0 6.64z"/>
  <path class="fil3" d="M273.48 102.78c-0.21,2.84 -1.25,5.07 -3.14,6.7 -1.89,1.63 -4.38,2.45 -7.47,2.45 -3.38,0 -6.04,-1.14 -7.98,-3.42 -1.94,-2.28 -2.91,-5.41 -2.91,-9.38l0 -1.61c0,-2.54 0.45,-4.78 1.35,-6.71 0.89,-1.93 2.17,-3.41 3.82,-4.45 1.67,-1.03 3.59,-1.55 5.79,-1.55 3.05,0 5.49,0.82 7.35,2.44 1.87,1.64 2.94,3.92 3.23,6.87l-5.44 0c-0.13,-1.7 -0.6,-2.94 -1.42,-3.71 -0.81,-0.76 -2.05,-1.15 -3.72,-1.15 -1.81,0 -3.17,0.65 -4.06,1.95 -0.91,1.3 -1.36,3.31 -1.39,6.05l0 1.99c0,2.85 0.43,4.93 1.29,6.25 0.87,1.31 2.23,1.97 4.09,1.97 1.68,0 2.93,-0.38 3.76,-1.14 0.82,-0.77 1.3,-1.95 1.42,-3.55l5.43 0z"/>
  <path class="fil3" d="M506.93 145.8l-9.52 0 -1.81 5.41 -5.78 0 9.81 -26.37 5.04 0 9.87 26.37 -5.78 0 -1.83 -5.41zm-8.06 -4.41l6.6 0 -3.32 -9.88 -3.28 9.88z"/>
  <path class="fil3" d="M584.6 111.55l0 -26.37 9.23 0c3.21,0 5.64,0.62 7.29,1.85 1.65,1.22 2.48,3.02 2.48,5.39 0,1.29 -0.33,2.43 -1,3.41 -0.66,0.99 -1.58,1.71 -2.77,2.17 1.35,0.34 2.42,1.02 3.2,2.04 0.78,1.03 1.16,2.29 1.16,3.77 0,2.53 -0.81,4.45 -2.42,5.75 -1.62,1.31 -3.92,1.97 -6.92,1.99l-10.25 0zm5.43 -11.46l0 7.09 4.66 0c1.28,0 2.28,-0.31 3,-0.91 0.71,-0.61 1.07,-1.45 1.07,-2.52 0,-2.4 -1.25,-3.62 -3.75,-3.66l-4.98 0zm0 -3.85l4.03 0c2.74,-0.05 4.11,-1.14 4.11,-3.28 0,-1.19 -0.35,-2.05 -1.05,-2.58 -0.69,-0.52 -1.78,-0.78 -3.29,-0.78l-3.8 0 0 6.64z"/>
  <g id="_2501178819568">
   <rect class="fil2" x="301.67" width="23.8" height="23.8" rx="0.61" ry="3.65"/>
   <path class="fil3" d="M342.44 5.16l0 9.56c-0.01,1.32 -0.43,2.4 -1.26,3.25 -0.82,0.84 -1.94,1.31 -3.36,1.42l-0.49 0.02c-1.54,0 -2.76,-0.42 -3.67,-1.25 -0.92,-0.83 -1.38,-1.97 -1.39,-3.43l0 -9.57 1.83 0 0 9.51c0,1.02 0.28,1.81 0.84,2.37 0.56,0.56 1.35,0.84 2.39,0.84 1.05,0 1.85,-0.28 2.41,-0.84 0.56,-0.56 0.83,-1.34 0.83,-2.36l0 -9.52 1.87 0z"/>
   <path id="_1" class="fil3" d="M351.17 16.44c0,-0.48 -0.19,-0.86 -0.55,-1.12 -0.36,-0.27 -1,-0.5 -1.9,-0.69 -0.9,-0.19 -1.62,-0.43 -2.15,-0.7 -0.53,-0.27 -0.92,-0.59 -1.18,-0.96 -0.25,-0.37 -0.38,-0.82 -0.38,-1.33 0,-0.86 0.36,-1.58 1.08,-2.17 0.73,-0.59 1.65,-0.89 2.78,-0.89 1.18,0 2.14,0.3 2.88,0.91 0.74,0.62 1.1,1.4 1.1,2.35l-1.79 0c0,-0.49 -0.21,-0.91 -0.62,-1.27 -0.42,-0.35 -0.94,-0.53 -1.57,-0.53 -0.65,0 -1.16,0.14 -1.52,0.43 -0.37,0.28 -0.55,0.65 -0.55,1.11 0,0.43 0.17,0.75 0.51,0.97 0.34,0.22 0.95,0.43 1.84,0.63 0.9,0.2 1.62,0.43 2.17,0.71 0.55,0.28 0.96,0.61 1.23,1 0.27,0.39 0.4,0.86 0.4,1.43 0,0.93 -0.37,1.68 -1.12,2.24 -0.74,0.56 -1.71,0.85 -2.9,0.85 -0.84,0 -1.58,-0.15 -2.22,-0.45 -0.65,-0.3 -1.15,-0.71 -1.51,-1.24 -0.36,-0.53 -0.55,-1.1 -0.55,-1.72l1.79 0c0.03,0.6 0.27,1.07 0.72,1.42 0.44,0.35 1.04,0.52 1.77,0.52 0.67,0 1.21,-0.13 1.62,-0.4 0.41,-0.28 0.62,-0.64 0.62,-1.1z"/>
   <path id="_2" class="fil3" d="M361.71 18.18c-0.69,0.82 -1.71,1.23 -3.05,1.23 -1.12,0 -1.96,-0.33 -2.55,-0.97 -0.58,-0.65 -0.87,-1.61 -0.88,-2.87l0 -6.79 1.79 0 0 6.73c0,1.58 0.64,2.37 1.93,2.37 1.36,0 2.27,-0.5 2.72,-1.52l0 -7.58 1.78 0 0 10.43 -1.7 0 -0.04 -1.03z"/>
   <path id="_3" class="fil3" d="M372.61 19.21c-0.1,-0.21 -0.19,-0.57 -0.25,-1.1 -0.83,0.86 -1.82,1.3 -2.97,1.3 -1.03,0 -1.88,-0.29 -2.53,-0.88 -0.66,-0.58 -0.99,-1.32 -0.99,-2.21 0,-1.09 0.41,-1.93 1.24,-2.53 0.82,-0.6 1.99,-0.9 3.48,-0.9l1.74 0 0 -0.82c0,-0.63 -0.19,-1.12 -0.56,-1.5 -0.37,-0.36 -0.92,-0.55 -1.65,-0.55 -0.64,0 -1.17,0.16 -1.6,0.48 -0.43,0.32 -0.65,0.71 -0.65,1.17l-1.79 0c0,-0.52 0.18,-1.03 0.55,-1.51 0.37,-0.49 0.87,-0.87 1.51,-1.16 0.63,-0.28 1.33,-0.42 2.09,-0.42 1.2,0 2.14,0.3 2.82,0.9 0.68,0.6 1.04,1.43 1.06,2.48l0 4.81c0,0.96 0.13,1.72 0.37,2.28l0 0.16 -1.87 0zm-2.96 -1.33c0.56,0 1.09,-0.14 1.59,-0.43 0.5,-0.29 0.86,-0.68 1.09,-1.14l0 -2.16 -1.4 0c-2.18,0 -3.28,0.65 -3.28,1.94 0,0.56 0.19,1 0.56,1.32 0.37,0.32 0.85,0.47 1.44,0.47zm1.65 -13.45l2.16 0 -2.58 2.84 -1.44 -0.01 1.86 -2.83z"/>
   <path id="_4" class="fil3" d="M381.95 10.37c-0.27,-0.05 -0.56,-0.07 -0.87,-0.07 -1.17,0 -1.97,0.49 -2.39,1.49l0 7.42 -1.78 0 0 -10.43 1.73 0 0.03 1.2c0.59,-0.93 1.42,-1.4 2.49,-1.4 0.35,0 0.62,0.04 0.79,0.13l0 1.66z"/>
   <path id="_5" class="fil3" d="M385.54 19.21l-1.79 0 0 -10.43 1.79 0 0 10.43zm-1.93 -13.21c0,-0.29 0.09,-0.54 0.26,-0.74 0.18,-0.2 0.44,-0.3 0.79,-0.3 0.35,0 0.61,0.1 0.79,0.3 0.18,0.2 0.27,0.45 0.27,0.74 0,0.29 -0.09,0.53 -0.27,0.73 -0.18,0.19 -0.44,0.29 -0.79,0.29 -0.35,0 -0.61,-0.1 -0.79,-0.29 -0.17,-0.2 -0.26,-0.44 -0.26,-0.73z"/>
   <path id="_6" class="fil3" d="M387.92 13.9c0,-1.03 0.2,-1.95 0.6,-2.76 0.4,-0.82 0.96,-1.45 1.68,-1.9 0.71,-0.44 1.53,-0.66 2.45,-0.66 1.42,0 2.57,0.49 3.45,1.47 0.88,0.99 1.32,2.3 1.32,3.93l0 0.13c0,1.01 -0.2,1.93 -0.59,2.73 -0.38,0.81 -0.94,1.44 -1.67,1.89 -0.72,0.45 -1.55,0.68 -2.49,0.68 -1.41,0 -2.56,-0.5 -3.44,-1.48 -0.88,-0.98 -1.31,-2.29 -1.31,-3.91l0 -0.12zm1.79 0.2c0,1.16 0.27,2.09 0.8,2.79 0.54,0.7 1.26,1.05 2.16,1.05 0.91,0 1.63,-0.35 2.16,-1.06 0.54,-0.71 0.8,-1.71 0.8,-2.99 0,-1.15 -0.27,-2.07 -0.81,-2.78 -0.54,-0.71 -1.27,-1.07 -2.17,-1.07 -0.88,0 -1.59,0.35 -2.13,1.05 -0.54,0.7 -0.81,1.71 -0.81,3.01z"/>
   <polygon id="_7" class="fil3" points="410.23,19.21 408.44,19.21 408.44,7.32 404.84,8.64 404.84,7.02 409.95,5.1 410.23,5.1 "/>
   <rect class="fil4" x="456.73" width="23.8" height="23.8" rx="0.61" ry="3.65"/>
   <path class="fil3" d="M497.49 5.16l0 9.56c-0.01,1.32 -0.43,2.4 -1.25,3.25 -0.83,0.84 -1.95,1.31 -3.37,1.42l-0.49 0.02c-1.53,0 -2.76,-0.42 -3.67,-1.25 -0.92,-0.83 -1.38,-1.97 -1.39,-3.43l0 -9.57 1.83 0 0 9.51c0,1.02 0.28,1.81 0.84,2.37 0.56,0.56 1.36,0.84 2.39,0.84 1.05,0 1.85,-0.28 2.41,-0.84 0.56,-0.56 0.83,-1.34 0.83,-2.36l0 -9.52 1.87 0z"/>
   <path id="_1_0" class="fil3" d="M506.22 16.44c0,-0.48 -0.18,-0.86 -0.55,-1.12 -0.36,-0.27 -0.99,-0.5 -1.9,-0.69 -0.9,-0.19 -1.62,-0.43 -2.15,-0.7 -0.53,-0.27 -0.92,-0.59 -1.18,-0.96 -0.25,-0.37 -0.38,-0.82 -0.38,-1.33 0,-0.86 0.36,-1.58 1.09,-2.17 0.72,-0.59 1.65,-0.89 2.77,-0.89 1.18,0 2.15,0.3 2.88,0.91 0.74,0.62 1.11,1.4 1.11,2.35l-1.8 0c0,-0.49 -0.21,-0.91 -0.62,-1.27 -0.42,-0.35 -0.94,-0.53 -1.57,-0.53 -0.65,0 -1.16,0.14 -1.52,0.43 -0.37,0.28 -0.55,0.65 -0.55,1.11 0,0.43 0.17,0.75 0.51,0.97 0.34,0.22 0.96,0.43 1.85,0.63 0.89,0.2 1.61,0.43 2.16,0.71 0.55,0.28 0.96,0.61 1.23,1 0.27,0.39 0.4,0.86 0.4,1.43 0,0.93 -0.37,1.68 -1.12,2.24 -0.74,0.56 -1.71,0.85 -2.9,0.85 -0.84,0 -1.58,-0.15 -2.22,-0.45 -0.64,-0.3 -1.15,-0.71 -1.51,-1.24 -0.36,-0.53 -0.55,-1.1 -0.55,-1.72l1.79 0c0.03,0.6 0.27,1.07 0.72,1.42 0.44,0.35 1.04,0.52 1.77,0.52 0.67,0 1.22,-0.13 1.62,-0.4 0.41,-0.28 0.62,-0.64 0.62,-1.1z"/>
   <path id="_2_1" class="fil3" d="M516.76 18.18c-0.69,0.82 -1.71,1.23 -3.05,1.23 -1.11,0 -1.96,-0.33 -2.54,-0.97 -0.59,-0.65 -0.88,-1.61 -0.89,-2.87l0 -6.79 1.79 0 0 6.73c0,1.58 0.64,2.37 1.93,2.37 1.36,0 2.27,-0.5 2.72,-1.52l0 -7.58 1.78 0 0 10.43 -1.7 0 -0.04 -1.03z"/>
   <path id="_3_2" class="fil3" d="M527.66 19.21c-0.1,-0.21 -0.18,-0.57 -0.25,-1.1 -0.83,0.86 -1.82,1.3 -2.97,1.3 -1.03,0 -1.87,-0.29 -2.53,-0.88 -0.66,-0.58 -0.99,-1.32 -0.99,-2.21 0,-1.09 0.41,-1.93 1.24,-2.53 0.82,-0.6 1.99,-0.9 3.48,-0.9l1.74 0 0 -0.82c0,-0.63 -0.18,-1.12 -0.56,-1.5 -0.37,-0.36 -0.92,-0.55 -1.65,-0.55 -0.63,0 -1.17,0.16 -1.6,0.48 -0.43,0.32 -0.65,0.71 -0.65,1.17l-1.79 0c0,-0.52 0.18,-1.03 0.55,-1.51 0.38,-0.49 0.88,-0.87 1.51,-1.16 0.63,-0.28 1.33,-0.42 2.09,-0.42 1.2,0 2.14,0.3 2.82,0.9 0.69,0.6 1.04,1.43 1.06,2.48l0 4.81c0,0.96 0.13,1.72 0.37,2.28l0 0.16 -1.87 0zm-2.96 -1.33c0.56,0 1.09,-0.14 1.59,-0.43 0.5,-0.29 0.87,-0.68 1.09,-1.14l0 -2.16 -1.4 0c-2.18,0 -3.28,0.65 -3.28,1.94 0,0.56 0.19,1 0.56,1.32 0.38,0.32 0.85,0.47 1.44,0.47zm1.65 -13.45l2.16 0 -2.58 2.84 -1.44 -0.01 1.86 -2.83z"/>
   <path id="_4_3" class="fil3" d="M537.01 10.37c-0.27,-0.05 -0.57,-0.07 -0.88,-0.07 -1.17,0 -1.97,0.49 -2.38,1.49l0 7.42 -1.79 0 0 -10.43 1.74 0 0.03 1.2c0.58,-0.93 1.41,-1.4 2.48,-1.4 0.35,0 0.62,0.04 0.8,0.13l0 1.66z"/>
   <path id="_5_4" class="fil3" d="M540.59 19.21l-1.78 0 0 -10.43 1.78 0 0 10.43zm-1.93 -13.21c0,-0.29 0.09,-0.54 0.26,-0.74 0.18,-0.2 0.45,-0.3 0.79,-0.3 0.35,0 0.61,0.1 0.79,0.3 0.18,0.2 0.27,0.45 0.27,0.74 0,0.29 -0.09,0.53 -0.27,0.73 -0.18,0.19 -0.44,0.29 -0.79,0.29 -0.34,0 -0.61,-0.1 -0.79,-0.29 -0.17,-0.2 -0.26,-0.44 -0.26,-0.73z"/>
   <path id="_6_5" class="fil3" d="M542.97 13.9c0,-1.03 0.2,-1.95 0.6,-2.76 0.4,-0.82 0.96,-1.45 1.68,-1.9 0.71,-0.44 1.53,-0.66 2.45,-0.66 1.43,0 2.58,0.49 3.45,1.47 0.88,0.99 1.32,2.3 1.32,3.93l0 0.13c0,1.01 -0.2,1.93 -0.58,2.73 -0.39,0.81 -0.95,1.44 -1.67,1.89 -0.73,0.45 -1.56,0.68 -2.5,0.68 -1.41,0 -2.56,-0.5 -3.43,-1.48 -0.88,-0.98 -1.32,-2.29 -1.32,-3.91l0 -0.12zm1.79 0.2c0,1.16 0.27,2.09 0.81,2.79 0.53,0.7 1.25,1.05 2.15,1.05 0.91,0 1.63,-0.35 2.16,-1.06 0.54,-0.71 0.8,-1.71 0.8,-2.99 0,-1.15 -0.27,-2.07 -0.81,-2.78 -0.54,-0.71 -1.26,-1.07 -2.17,-1.07 -0.88,0 -1.59,0.35 -2.13,1.05 -0.54,0.7 -0.81,1.71 -0.81,3.01z"/>
   <path id="_7_6" class="fil3" d="M568.62 19.21l-9.2 0 0 -1.29 4.86 -5.4c0.72,-0.82 1.22,-1.48 1.49,-2 0.27,-0.51 0.41,-1.04 0.41,-1.59 0,-0.73 -0.22,-1.33 -0.67,-1.8 -0.44,-0.47 -1.03,-0.7 -1.77,-0.7 -0.89,0 -1.58,0.25 -2.07,0.75 -0.49,0.51 -0.74,1.21 -0.74,2.11l-1.78 0c0,-1.29 0.41,-2.33 1.25,-3.13 0.83,-0.8 1.94,-1.2 3.34,-1.2 1.3,0 2.34,0.35 3.09,1.03 0.77,0.69 1.14,1.6 1.14,2.74 0,1.38 -0.87,3.03 -2.64,4.94l-3.76 4.08 7.05 0 0 1.46z"/>
  </g>
  <line class="fil5 str0" x1="753.07" y1="197.52" x2="753.07" y2= "38.88" />
  <line class="fil5 str1" x1="118.51" y1="197.52" x2="118.51" y2= "38.88" />
  <polygon class="fil6" points="8.12,109.72 2.78,109.72 2.78,115.24 0,115.24 0,101.74 8.79,101.74 8.79,104 2.78,104 2.78,107.48 8.12,107.48 "/>
  <path id="_1_7" class="fil6" d="M15.39 110.31l-2.21 0 0 4.93 -2.78 0 0 -13.5 5.01 0c1.6,0 2.83,0.36 3.69,1.07 0.87,0.71 1.3,1.72 1.3,3.02 0,0.92 -0.2,1.69 -0.6,2.3 -0.4,0.62 -1,1.11 -1.81,1.47l2.92 5.51 0 0.13 -2.98 0 -2.54 -4.93zm-2.21 -2.26l2.24 0c0.7,0 1.24,-0.18 1.63,-0.53 0.38,-0.36 0.57,-0.85 0.57,-1.47 0,-0.64 -0.18,-1.14 -0.54,-1.5 -0.36,-0.36 -0.92,-0.55 -1.67,-0.55l-2.23 0 0 4.05z"/>
  <path id="_2_8" class="fil6" d="M30.14 112.47l-4.88 0 -0.93 2.77 -2.95 0 5.02 -13.5 2.58 0 5.05 13.5 -2.96 0 -0.93 -2.77zm-4.13 -2.26l3.38 0 -1.7 -5.05 -1.68 5.05z"/>
  <path id="_3_9" class="fil6" d="M45.69 110.75c-0.1,1.46 -0.63,2.6 -1.6,3.43 -0.97,0.84 -2.24,1.25 -3.83,1.25 -1.73,0 -3.09,-0.58 -4.08,-1.75 -0.99,-1.16 -1.49,-2.76 -1.49,-4.8l0 -0.82c0,-1.3 0.23,-2.45 0.69,-3.44 0.45,-0.98 1.11,-1.74 1.96,-2.27 0.85,-0.53 1.84,-0.8 2.96,-0.8 1.56,0 2.81,0.42 3.76,1.25 0.96,0.84 1.51,2.01 1.65,3.52l-2.78 0c-0.06,-0.87 -0.31,-1.51 -0.73,-1.9 -0.41,-0.39 -1.05,-0.59 -1.9,-0.59 -0.93,0 -1.62,0.33 -2.08,1 -0.46,0.66 -0.7,1.7 -0.71,3.09l0 1.02c0,1.46 0.22,2.53 0.66,3.2 0.45,0.68 1.14,1.01 2.09,1.01 0.86,0 1.5,-0.19 1.93,-0.58 0.42,-0.39 0.66,-1 0.73,-1.82l2.77 0zm-4.4 4.44l-0.1 0.53c0.93,0.17 1.39,0.7 1.39,1.61 0,0.68 -0.28,1.21 -0.85,1.61 -0.56,0.39 -1.36,0.59 -2.38,0.59l-0.07 -1.55c0.69,0 1.04,-0.25 1.04,-0.75 0,-0.26 -0.1,-0.44 -0.31,-0.53 -0.21,-0.1 -0.54,-0.16 -1.01,-0.19l0.29 -1.32 2 0z"/>
  <path id="_4_10" class="fil6" d="M55.14 112.47l-4.87 0 -0.93 2.77 -2.96 0 5.03 -13.5 2.58 0 5.05 13.5 -2.96 0 -0.94 -2.77zm-4.12 -2.26l3.37 0 -1.69 -5.05 -1.68 5.05zm5.21 -11.93c0,0.69 -0.21,1.28 -0.61,1.75 -0.41,0.47 -0.91,0.71 -1.5,0.71 -0.23,0 -0.44,-0.03 -0.63,-0.08 -0.18,-0.05 -0.43,-0.17 -0.75,-0.34 -0.32,-0.17 -0.55,-0.28 -0.69,-0.32 -0.15,-0.04 -0.3,-0.06 -0.47,-0.06 -0.21,0 -0.4,0.08 -0.55,0.23 -0.15,0.16 -0.23,0.38 -0.23,0.66l-1.56 -0.09c0,-0.69 0.21,-1.27 0.61,-1.75 0.41,-0.48 0.9,-0.72 1.49,-0.72 0.18,0 0.36,0.02 0.52,0.07 0.17,0.04 0.44,0.15 0.81,0.33 0.37,0.18 0.62,0.29 0.76,0.32 0.15,0.04 0.3,0.06 0.45,0.06 0.22,0 0.4,-0.08 0.56,-0.23 0.16,-0.15 0.24,-0.36 0.24,-0.64l1.55 0.1z"/>
  <path id="_5_11" class="fil6" d="M71.19 108.8c0,1.33 -0.24,2.49 -0.71,3.5 -0.47,1 -1.14,1.77 -2.01,2.32 -0.88,0.54 -1.88,0.81 -3.01,0.81 -1.12,0 -2.12,-0.27 -2.99,-0.8 -0.88,-0.54 -1.56,-1.31 -2.05,-2.31 -0.48,-1 -0.72,-2.15 -0.73,-3.45l0 -0.66c0,-1.33 0.24,-2.5 0.72,-3.52 0.48,-1.01 1.16,-1.78 2.03,-2.32 0.88,-0.54 1.88,-0.82 3,-0.82 1.13,0 2.12,0.28 3,0.82 0.87,0.54 1.55,1.31 2.03,2.32 0.48,1.02 0.72,2.18 0.72,3.51l0 0.6zm-2.82 -0.61c0,-1.42 -0.25,-2.5 -0.76,-3.23 -0.51,-0.74 -1.23,-1.11 -2.17,-1.11 -0.93,0 -1.65,0.37 -2.16,1.09 -0.51,0.73 -0.76,1.8 -0.77,3.2l0 0.66c0,1.38 0.25,2.45 0.76,3.21 0.51,0.77 1.24,1.14 2.19,1.14 0.93,0 1.65,-0.36 2.15,-1.1 0.5,-0.73 0.75,-1.8 0.76,-3.2l0 -0.66z"/>
  <path id="_6_12" class="fil6" d="M3.2 138.03l0 -13.5 4.15 0c1.19,0 2.25,0.27 3.19,0.8 0.94,0.54 1.67,1.3 2.19,2.28 0.53,0.99 0.79,2.11 0.79,3.36l0 0.63c0,1.25 -0.26,2.37 -0.78,3.34 -0.51,0.98 -1.24,1.74 -2.18,2.27 -0.94,0.54 -2,0.81 -3.18,0.82l-4.18 0zm2.78 -11.24l0 9 1.35 0c1.08,0 1.91,-0.35 2.49,-1.06 0.57,-0.72 0.87,-1.73 0.88,-3.05l0 -0.71c0,-1.37 -0.28,-2.41 -0.85,-3.12 -0.57,-0.71 -1.4,-1.06 -2.5,-1.06l-1.37 0z"/>
  <path id="_7_13" class="fil6" d="M22.97 135.26l-4.88 0 -0.93 2.77 -2.95 0 5.02 -13.5 2.58 0 5.05 13.5 -2.96 0 -0.93 -2.77zm-4.13 -2.26l3.38 0 -1.7 -5.06 -1.68 5.06z"/>
  <path id="_8" class="fil6" d="M43.44 133.54c-0.1,1.45 -0.64,2.59 -1.6,3.43 -0.97,0.83 -2.25,1.25 -3.83,1.25 -1.73,0 -3.09,-0.58 -4.08,-1.75 -0.99,-1.16 -1.49,-2.77 -1.49,-4.8l0 -0.83c0,-1.29 0.23,-2.44 0.69,-3.43 0.45,-0.99 1.11,-1.75 1.96,-2.27 0.85,-0.53 1.83,-0.8 2.96,-0.8 1.56,0 2.81,0.42 3.76,1.25 0.96,0.84 1.51,2.01 1.65,3.52l-2.78 0c-0.07,-0.88 -0.31,-1.51 -0.73,-1.9 -0.41,-0.39 -1.05,-0.59 -1.9,-0.59 -0.93,0 -1.62,0.33 -2.08,1 -0.46,0.66 -0.7,1.69 -0.71,3.09l0 1.02c0,1.46 0.22,2.53 0.66,3.2 0.44,0.67 1.14,1.01 2.09,1.01 0.86,0 1.5,-0.19 1.93,-0.58 0.42,-0.4 0.66,-1 0.72,-1.82l2.78 0z"/>
  <path id="_9" class="fil6" d="M48.05 133.28l0 4.75 -2.78 0 0 -13.5 5.27 0c1.01,0 1.9,0.19 2.67,0.56 0.77,0.37 1.36,0.9 1.78,1.58 0.41,0.68 0.62,1.46 0.62,2.34 0,1.32 -0.46,2.36 -1.36,3.13 -0.91,0.76 -2.16,1.14 -3.76,1.14l-2.44 0zm0 -2.26l2.49 0c0.73,0 1.29,-0.17 1.68,-0.51 0.39,-0.35 0.58,-0.84 0.58,-1.49 0,-0.66 -0.2,-1.19 -0.59,-1.6 -0.38,-0.41 -0.92,-0.62 -1.61,-0.63l-2.55 0 0 4.23z"/>
  <path id="_10" class="fil6" d="M67.73 124.53l0 8.9c0,1.47 -0.46,2.64 -1.38,3.5 -0.93,0.86 -2.19,1.29 -3.79,1.29 -1.58,0 -2.83,-0.42 -3.76,-1.25 -0.92,-0.84 -1.4,-1.98 -1.41,-3.44l0 -9 2.78 0 0 8.91c0,0.88 0.21,1.53 0.63,1.93 0.43,0.41 1.01,0.61 1.76,0.61 1.56,0 2.36,-0.82 2.38,-2.47l0 -8.98 2.79 0z"/>
  <line class="fil5 str1" x1="126.27" y1="38.88" x2="110.75" y2= "38.88" />
  <path class="fil7" d="M95.06 146.47l-1.92 -1.04 9.71 -15.56 1.93 1.04 -9.72 15.56zm11.48 -2.86l1.21 0 0 2.3 -1.21 0 0 2.15 -2.8 0 0 -2.15 -4.73 0 -0.16 -1.86 4.88 -6.76 2.81 0 0 6.32zm-5.01 0l2.21 0 0 -2.89 -0.19 0.29 -2.02 2.6zm-10.59 -11.11l1.12 0c1.08,0 1.63,-0.4 1.63,-1.21 0,-0.32 -0.13,-0.57 -0.39,-0.77 -0.26,-0.19 -0.61,-0.28 -1.06,-0.28 -0.38,0 -0.71,0.07 -0.98,0.21 -0.27,0.14 -0.4,0.35 -0.4,0.62l-2.8 0c0,-0.93 0.38,-1.67 1.15,-2.23 0.77,-0.56 1.75,-0.84 2.95,-0.84 1.32,0 2.37,0.27 3.15,0.81 0.78,0.54 1.16,1.3 1.16,2.27 0,1.08 -0.61,1.85 -1.84,2.3 1.37,0.38 2.05,1.22 2.05,2.52 0,0.96 -0.42,1.73 -1.25,2.31 -0.83,0.58 -1.93,0.87 -3.27,0.87 -1.3,0 -2.34,-0.31 -3.12,-0.91 -0.78,-0.61 -1.17,-1.43 -1.17,-2.47l2.81 0c0,0.31 0.16,0.58 0.47,0.8 0.31,0.23 0.7,0.34 1.17,0.34 0.55,0 0.94,-0.12 1.18,-0.36 0.25,-0.25 0.37,-0.53 0.37,-0.85 0,-0.85 -0.56,-1.27 -1.67,-1.28l-1.26 0 0 -1.85z"/>
  <path class="fil8" d="M94.36 59.55l-2.79 0 0 -7.5 -2.58 0.56 0 -2.16 5.11 -1.65 0.26 0 0 10.75zm-0.48 7.47l-1.93 -1.04 9.72 -15.55 1.92 1.04 -9.71 15.55zm11.53 -2.85l1.21 0 0 2.29 -1.21 0 0 2.15 -2.8 0 0 -2.15 -4.73 0 -0.16 -1.86 4.88 -6.76 2.81 0 0 6.33zm-5.01 0l2.21 0 0 -2.9 -0.19 0.3 -2.02 2.6z"/>
  <line class="fil5 str2" x1="396.1" y1="197.52" x2="396.1" y2= "38.88" />
  <rect class="fil4" x="326.7" y="38.88" width="69.4" height="39.66" rx="1.79" ry="6.08"/>
  <polygon class="fil3" points="368.43,60.43 358,60.43 358,67.52 370.24,67.52 370.24,71.89 352.56,71.89 352.56,45.52 370.2,45.52 370.2,49.94 358,49.94 358,56.21 368.43,56.21 "/>
  <line class="fil5 str0" x1="435.79" y1="197.52" x2="435.79" y2= "38.88" />
  <line class="fil5 str2" x1="713.38" y1="197.52" x2="713.38" y2= "38.88" />
  <rect class="fil2" x="396.1" y="157.86" width="53.53" height="39.66" rx="1.38" ry="6.08"/>
  <path class="fil3" d="M412.78 190.87l0 -26.37 8.11 0c2.32,0 4.4,0.52 6.23,1.57 1.83,1.04 3.26,2.53 4.28,4.45 1.03,1.93 1.54,4.12 1.54,6.57l0 1.22c0,2.44 -0.5,4.63 -1.51,6.53 -1.01,1.91 -2.43,3.39 -4.27,4.44 -1.83,1.05 -3.9,1.58 -6.21,1.59l-8.17 0zm5.44 -21.95l0 17.58 2.63 0c2.12,0 3.74,-0.7 4.87,-2.08 1.12,-1.39 1.69,-3.38 1.71,-5.95l0 -1.39c0,-2.68 -0.55,-4.71 -1.66,-6.09 -1.11,-1.38 -2.74,-2.07 -4.88,-2.07l-2.67 0z"/>
  <rect class="fil4" x="634.06" y="38.88" width="79.32" height="39.66" rx="2.05" ry="6.08"/>
  <polygon class="fil3" points="680.99,61.1 670.57,61.1 670.57,71.89 665.13,71.89 665.13,45.52 682.3,45.52 682.3,49.94 670.57,49.94 670.57,56.73 680.99,56.73 "/>
  <rect class="fil2" x="713.38" y="157.86" width="39.69" height="39.66" rx="1.02" ry="6.08"/>
  <path class="fil3" d="M743.95 182.1c-0.2,2.84 -1.25,5.07 -3.14,6.7 -1.89,1.63 -4.38,2.44 -7.47,2.44 -3.38,0 -6.04,-1.13 -7.98,-3.41 -1.93,-2.28 -2.9,-5.41 -2.9,-9.38l0 -1.61c0,-2.54 0.44,-4.78 1.34,-6.71 0.89,-1.93 2.17,-3.41 3.82,-4.45 1.67,-1.03 3.59,-1.55 5.79,-1.55 3.05,0 5.49,0.82 7.36,2.44 1.86,1.64 2.93,3.92 3.22,6.87l-5.44 0c-0.13,-1.7 -0.6,-2.94 -1.42,-3.71 -0.81,-0.76 -2.05,-1.15 -3.72,-1.15 -1.81,0 -3.17,0.65 -4.06,1.95 -0.9,1.3 -1.36,3.31 -1.39,6.05l0 1.99c0,2.85 0.43,4.93 1.3,6.25 0.86,1.31 2.22,1.97 4.08,1.97 1.68,0 2.93,-0.38 3.76,-1.14 0.82,-0.77 1.3,-1.95 1.42,-3.55l5.43 0z"/>
  <path class="fil9" d="M188 217.66l-6.25 0 0 -0.87 3.3 -3.68c0.49,-0.55 0.83,-1 1.02,-1.35 0.18,-0.35 0.28,-0.71 0.28,-1.08 0,-0.5 -0.15,-0.91 -0.46,-1.23 -0.3,-0.32 -0.7,-0.48 -1.2,-0.48 -0.61,0 -1.08,0.18 -1.41,0.52 -0.33,0.34 -0.5,0.82 -0.5,1.43l-1.22 0c0,-0.87 0.29,-1.59 0.85,-2.13 0.57,-0.54 1.33,-0.81 2.28,-0.81 0.88,0 1.59,0.23 2.1,0.7 0.52,0.46 0.78,1.08 0.78,1.86 0,0.94 -0.6,2.06 -1.8,3.36l-2.56 2.77 4.79 0 0 0.99z"/>
  <path id="_1_14" class="fil9" d="M189.85 212.88l0.48 -4.77 4.9 0 0 1.13 -3.87 0 -0.29 2.6c0.47,-0.27 1,-0.41 1.6,-0.41 0.87,0 1.56,0.29 2.07,0.86 0.51,0.58 0.77,1.36 0.77,2.33 0,0.99 -0.27,1.76 -0.8,2.33 -0.53,0.57 -1.27,0.85 -2.23,0.85 -0.84,0 -1.53,-0.24 -2.06,-0.71 -0.54,-0.46 -0.84,-1.11 -0.91,-1.94l1.14 0c0.08,0.55 0.27,0.96 0.59,1.24 0.31,0.28 0.73,0.41 1.24,0.41 0.57,0 1.01,-0.19 1.33,-0.57 0.32,-0.39 0.48,-0.92 0.48,-1.6 0,-0.63 -0.17,-1.14 -0.52,-1.53 -0.34,-0.39 -0.81,-0.58 -1.38,-0.58 -0.53,0 -0.95,0.12 -1.25,0.35l-0.32 0.26 -0.97 -0.25z"/>
  <path id="_2_15" class="fil9" d="M198.1 210.57l0.03 0.79c0.52,-0.62 1.22,-0.92 2.1,-0.92 1,0 1.67,0.38 2.03,1.14 0.23,-0.34 0.54,-0.62 0.92,-0.83 0.38,-0.21 0.83,-0.31 1.34,-0.31 1.56,0 2.35,0.82 2.38,2.47l0 4.75 -1.22 0 0 -4.68c0,-0.5 -0.11,-0.88 -0.34,-1.13 -0.24,-0.25 -0.62,-0.38 -1.17,-0.38 -0.45,0 -0.83,0.14 -1.12,0.4 -0.3,0.27 -0.47,0.63 -0.52,1.09l0 4.7 -1.22 0 0 -4.64c0,-1.03 -0.51,-1.55 -1.52,-1.55 -0.79,0 -1.34,0.34 -1.63,1.02l0 5.17 -1.21 0 0 -7.09 1.15 0z"/>
  <path id="_3_16" class="fil9" d="M212.86 215.78c0,-0.33 -0.12,-0.58 -0.37,-0.76 -0.24,-0.18 -0.67,-0.34 -1.29,-0.47 -0.61,-0.13 -1.1,-0.29 -1.46,-0.47 -0.36,-0.19 -0.63,-0.4 -0.8,-0.66 -0.17,-0.25 -0.26,-0.55 -0.26,-0.9 0,-0.58 0.25,-1.08 0.74,-1.48 0.49,-0.4 1.12,-0.6 1.88,-0.6 0.81,0 1.46,0.21 1.96,0.62 0.5,0.42 0.75,0.95 0.75,1.59l-1.22 0c0,-0.33 -0.14,-0.62 -0.42,-0.86 -0.28,-0.24 -0.64,-0.36 -1.07,-0.36 -0.44,0 -0.78,0.1 -1.03,0.29 -0.25,0.19 -0.38,0.44 -0.38,0.75 0,0.3 0.12,0.52 0.35,0.67 0.23,0.14 0.65,0.29 1.26,0.42 0.6,0.14 1.09,0.3 1.47,0.49 0.38,0.19 0.65,0.41 0.83,0.68 0.19,0.26 0.28,0.59 0.28,0.97 0,0.63 -0.26,1.14 -0.76,1.52 -0.51,0.39 -1.17,0.58 -1.98,0.58 -0.57,0 -1.07,-0.1 -1.51,-0.3 -0.43,-0.21 -0.78,-0.49 -1.02,-0.85 -0.25,-0.36 -0.37,-0.75 -0.37,-1.17l1.21 0c0.02,0.41 0.19,0.73 0.49,0.97 0.3,0.24 0.7,0.35 1.2,0.35 0.46,0 0.83,-0.09 1.11,-0.27 0.28,-0.19 0.41,-0.44 0.41,-0.75z"/>
  <path class="fil9" d="M261.63 212.88l0.48 -4.77 4.89 0 0 1.13 -3.86 0 -0.29 2.6c0.47,-0.27 1,-0.41 1.59,-0.41 0.88,0 1.57,0.29 2.08,0.86 0.51,0.58 0.77,1.36 0.77,2.33 0,0.99 -0.27,1.76 -0.8,2.33 -0.53,0.57 -1.28,0.85 -2.23,0.85 -0.84,0 -1.53,-0.24 -2.06,-0.71 -0.54,-0.46 -0.84,-1.11 -0.92,-1.94l1.15 0c0.08,0.55 0.27,0.96 0.59,1.24 0.31,0.28 0.73,0.41 1.24,0.41 0.57,0 1.01,-0.19 1.33,-0.57 0.32,-0.39 0.48,-0.92 0.48,-1.6 0,-0.63 -0.17,-1.14 -0.52,-1.53 -0.35,-0.39 -0.81,-0.58 -1.39,-0.58 -0.53,0 -0.94,0.12 -1.24,0.35l-0.32 0.26 -0.97 -0.25z"/>
  <path id="_1_17" class="fil9" d="M274.6 213.59c0,1.42 -0.24,2.48 -0.73,3.17 -0.49,0.69 -1.25,1.04 -2.27,1.04 -1.03,0 -1.78,-0.34 -2.27,-1.02 -0.49,-0.67 -0.74,-1.68 -0.76,-3.03l0 -1.62c0,-1.4 0.24,-2.44 0.73,-3.13 0.48,-0.68 1.25,-1.02 2.28,-1.02 1.03,0 1.79,0.33 2.27,0.99 0.49,0.65 0.73,1.67 0.75,3.05l0 1.57zm-1.22 -1.66c0,-1.03 -0.14,-1.78 -0.43,-2.25 -0.29,-0.47 -0.74,-0.71 -1.37,-0.71 -0.62,0 -1.07,0.24 -1.36,0.71 -0.28,0.46 -0.43,1.18 -0.44,2.15l0 1.95c0,1.03 0.15,1.79 0.45,2.29 0.3,0.49 0.76,0.73 1.37,0.73 0.59,0 1.04,-0.23 1.33,-0.69 0.29,-0.47 0.44,-1.2 0.45,-2.19l0 -1.99z"/>
  <path id="_2_18" class="fil9" d="M277.42 210.57l0.03 0.79c0.52,-0.62 1.22,-0.92 2.1,-0.92 1,0 1.67,0.38 2.03,1.14 0.23,-0.34 0.54,-0.62 0.92,-0.83 0.38,-0.21 0.83,-0.31 1.34,-0.31 1.56,0 2.35,0.82 2.38,2.47l0 4.75 -1.22 0 0 -4.68c0,-0.5 -0.11,-0.88 -0.34,-1.13 -0.24,-0.25 -0.63,-0.38 -1.17,-0.38 -0.45,0 -0.83,0.14 -1.13,0.4 -0.29,0.27 -0.47,0.63 -0.51,1.09l0 4.7 -1.22 0 0 -4.64c0,-1.03 -0.51,-1.55 -1.52,-1.55 -0.79,0 -1.34,0.34 -1.63,1.02l0 5.17 -1.21 0 0 -7.09 1.15 0z"/>
  <path id="_3_19" class="fil9" d="M292.18 215.78c0,-0.33 -0.12,-0.58 -0.37,-0.76 -0.24,-0.18 -0.67,-0.34 -1.29,-0.47 -0.61,-0.13 -1.1,-0.29 -1.46,-0.47 -0.36,-0.19 -0.63,-0.4 -0.8,-0.66 -0.18,-0.25 -0.26,-0.55 -0.26,-0.9 0,-0.58 0.25,-1.08 0.74,-1.48 0.49,-0.4 1.12,-0.6 1.88,-0.6 0.81,0 1.46,0.21 1.96,0.62 0.5,0.42 0.75,0.95 0.75,1.59l-1.22 0c0,-0.33 -0.14,-0.62 -0.42,-0.86 -0.28,-0.24 -0.64,-0.36 -1.07,-0.36 -0.44,0 -0.78,0.1 -1.03,0.29 -0.25,0.19 -0.38,0.44 -0.38,0.75 0,0.3 0.12,0.52 0.35,0.67 0.23,0.14 0.65,0.29 1.26,0.42 0.6,0.14 1.09,0.3 1.47,0.49 0.37,0.19 0.65,0.41 0.83,0.68 0.18,0.26 0.28,0.59 0.28,0.97 0,0.63 -0.26,1.14 -0.76,1.52 -0.51,0.39 -1.17,0.58 -1.98,0.58 -0.57,0 -1.07,-0.1 -1.51,-0.3 -0.43,-0.21 -0.78,-0.49 -1.02,-0.85 -0.25,-0.36 -0.37,-0.75 -0.37,-1.17l1.21 0c0.02,0.41 0.18,0.73 0.49,0.97 0.3,0.24 0.7,0.35 1.2,0.35 0.46,0 0.83,-0.09 1.11,-0.27 0.27,-0.19 0.41,-0.44 0.41,-0.75z"/>
  <polygon class="fil9" points="346.55,208.79 342.6,217.66 341.32,217.66 345.27,209.11 340.1,209.11 340.1,208.11 346.55,208.11 "/>
  <path id="_1_20" class="fil9" d="M348.49 212.88l0.48 -4.77 4.89 0 0 1.13 -3.86 0 -0.29 2.6c0.47,-0.27 1,-0.41 1.6,-0.41 0.87,0 1.56,0.29 2.07,0.86 0.51,0.58 0.77,1.36 0.77,2.33 0,0.99 -0.27,1.76 -0.8,2.33 -0.53,0.57 -1.27,0.85 -2.23,0.85 -0.84,0 -1.53,-0.24 -2.06,-0.71 -0.54,-0.46 -0.84,-1.11 -0.91,-1.94l1.14 0c0.08,0.55 0.27,0.96 0.59,1.24 0.31,0.28 0.73,0.41 1.24,0.41 0.57,0 1.01,-0.19 1.33,-0.57 0.32,-0.39 0.48,-0.92 0.48,-1.6 0,-0.63 -0.17,-1.14 -0.52,-1.53 -0.34,-0.39 -0.81,-0.58 -1.39,-0.58 -0.52,0 -0.94,0.12 -1.24,0.35l-0.32 0.26 -0.97 -0.25z"/>
  <path id="_2_21" class="fil9" d="M356.73 210.57l0.04 0.79c0.52,-0.62 1.22,-0.92 2.1,-0.92 0.99,0 1.67,0.38 2.03,1.14 0.23,-0.34 0.54,-0.62 0.92,-0.83 0.38,-0.21 0.82,-0.31 1.34,-0.31 1.56,0 2.35,0.82 2.37,2.47l0 4.75 -1.21 0 0 -4.68c0,-0.5 -0.12,-0.88 -0.35,-1.13 -0.23,-0.25 -0.62,-0.38 -1.16,-0.38 -0.45,0 -0.83,0.14 -1.13,0.4 -0.29,0.27 -0.47,0.63 -0.51,1.09l0 4.7 -1.22 0 0 -4.64c0,-1.03 -0.51,-1.55 -1.52,-1.55 -0.79,0 -1.34,0.34 -1.63,1.02l0 5.17 -1.21 0 0 -7.09 1.14 0z"/>
  <path id="_3_22" class="fil9" d="M371.5 215.78c0,-0.33 -0.12,-0.58 -0.37,-0.76 -0.25,-0.18 -0.67,-0.34 -1.29,-0.47 -0.61,-0.13 -1.1,-0.29 -1.46,-0.47 -0.36,-0.19 -0.63,-0.4 -0.8,-0.66 -0.18,-0.25 -0.26,-0.55 -0.26,-0.9 0,-0.58 0.25,-1.08 0.74,-1.48 0.49,-0.4 1.12,-0.6 1.88,-0.6 0.81,0 1.46,0.21 1.96,0.62 0.5,0.42 0.75,0.95 0.75,1.59l-1.22 0c0,-0.33 -0.14,-0.62 -0.42,-0.86 -0.28,-0.24 -0.64,-0.36 -1.07,-0.36 -0.44,0 -0.79,0.1 -1.03,0.29 -0.25,0.19 -0.38,0.44 -0.38,0.75 0,0.3 0.12,0.52 0.35,0.67 0.23,0.14 0.65,0.29 1.25,0.42 0.61,0.14 1.1,0.3 1.48,0.49 0.37,0.19 0.65,0.41 0.83,0.68 0.18,0.26 0.28,0.59 0.28,0.97 0,0.63 -0.26,1.14 -0.77,1.52 -0.5,0.39 -1.16,0.58 -1.97,0.58 -0.57,0 -1.07,-0.1 -1.51,-0.3 -0.43,-0.21 -0.78,-0.49 -1.02,-0.85 -0.25,-0.36 -0.38,-0.75 -0.38,-1.17l1.22 0c0.02,0.41 0.18,0.73 0.49,0.97 0.3,0.24 0.7,0.35 1.2,0.35 0.46,0 0.83,-0.09 1.11,-0.27 0.27,-0.19 0.41,-0.44 0.41,-0.75z"/>
  <polygon class="fil9" points="419.92,217.66 418.7,217.66 418.7,209.58 416.26,210.48 416.26,209.38 419.73,208.07 419.92,208.07 "/>
  <path id="_1_23" class="fil9" d="M429.46 213.59c0,1.42 -0.24,2.48 -0.72,3.17 -0.49,0.69 -1.25,1.04 -2.28,1.04 -1.02,0 -1.77,-0.34 -2.26,-1.02 -0.49,-0.67 -0.74,-1.68 -0.76,-3.03l0 -1.62c0,-1.4 0.24,-2.44 0.73,-3.13 0.48,-0.68 1.24,-1.02 2.28,-1.02 1.03,0 1.78,0.33 2.27,0.99 0.48,0.65 0.73,1.67 0.74,3.05l0 1.57zm-1.21 -1.66c0,-1.03 -0.14,-1.78 -0.43,-2.25 -0.29,-0.47 -0.75,-0.71 -1.37,-0.71 -0.62,0 -1.08,0.24 -1.36,0.71 -0.28,0.46 -0.43,1.18 -0.44,2.15l0 1.95c0,1.03 0.15,1.79 0.45,2.29 0.3,0.49 0.75,0.73 1.36,0.73 0.6,0 1.05,-0.23 1.34,-0.69 0.29,-0.47 0.44,-1.2 0.45,-2.19l0 -1.99z"/>
  <path id="_2_24" class="fil9" d="M437.01 213.59c0,1.42 -0.25,2.48 -0.73,3.17 -0.49,0.69 -1.25,1.04 -2.28,1.04 -1.02,0 -1.77,-0.34 -2.26,-1.02 -0.49,-0.67 -0.74,-1.68 -0.76,-3.03l0 -1.62c0,-1.4 0.24,-2.44 0.73,-3.13 0.48,-0.68 1.24,-1.02 2.28,-1.02 1.03,0 1.79,0.33 2.27,0.99 0.48,0.65 0.73,1.67 0.75,3.05l0 1.57zm-1.22 -1.66c0,-1.03 -0.14,-1.78 -0.43,-2.25 -0.29,-0.47 -0.74,-0.71 -1.37,-0.71 -0.62,0 -1.07,0.24 -1.36,0.71 -0.28,0.46 -0.43,1.18 -0.44,2.15l0 1.95c0,1.03 0.15,1.79 0.45,2.29 0.3,0.49 0.76,0.73 1.36,0.73 0.6,0 1.05,-0.23 1.34,-0.69 0.29,-0.47 0.44,-1.2 0.45,-2.19l0 -1.99z"/>
  <path id="_3_25" class="fil9" d="M439.83 210.57l0.03 0.79c0.52,-0.62 1.22,-0.92 2.1,-0.92 0.99,0 1.67,0.38 2.03,1.14 0.23,-0.34 0.54,-0.62 0.92,-0.83 0.38,-0.21 0.83,-0.31 1.34,-0.31 1.56,0 2.35,0.82 2.37,2.47l0 4.75 -1.21 0 0 -4.68c0,-0.5 -0.11,-0.88 -0.35,-1.13 -0.23,-0.25 -0.62,-0.38 -1.16,-0.38 -0.45,0 -0.83,0.14 -1.13,0.4 -0.29,0.27 -0.47,0.63 -0.51,1.09l0 4.7 -1.22 0 0 -4.64c0,-1.03 -0.51,-1.55 -1.52,-1.55 -0.79,0 -1.34,0.34 -1.63,1.02l0 5.17 -1.21 0 0 -7.09 1.15 0z"/>
  <path id="_4_26" class="fil9" d="M454.59 215.78c0,-0.33 -0.12,-0.58 -0.37,-0.76 -0.24,-0.18 -0.67,-0.34 -1.29,-0.47 -0.61,-0.13 -1.1,-0.29 -1.46,-0.47 -0.36,-0.19 -0.63,-0.4 -0.8,-0.66 -0.18,-0.25 -0.26,-0.55 -0.26,-0.9 0,-0.58 0.25,-1.08 0.74,-1.48 0.49,-0.4 1.12,-0.6 1.88,-0.6 0.81,0 1.46,0.21 1.96,0.62 0.5,0.42 0.75,0.95 0.75,1.59l-1.22 0c0,-0.33 -0.14,-0.62 -0.42,-0.86 -0.28,-0.24 -0.64,-0.36 -1.07,-0.36 -0.44,0 -0.79,0.1 -1.03,0.29 -0.25,0.19 -0.38,0.44 -0.38,0.75 0,0.3 0.12,0.52 0.35,0.67 0.23,0.14 0.65,0.29 1.26,0.42 0.6,0.14 1.09,0.3 1.47,0.49 0.37,0.19 0.65,0.41 0.83,0.68 0.18,0.26 0.28,0.59 0.28,0.97 0,0.63 -0.26,1.14 -0.76,1.52 -0.51,0.39 -1.17,0.58 -1.98,0.58 -0.57,0 -1.07,-0.1 -1.51,-0.3 -0.43,-0.21 -0.78,-0.49 -1.02,-0.85 -0.25,-0.36 -0.37,-0.75 -0.37,-1.17l1.21 0c0.02,0.41 0.18,0.73 0.49,0.97 0.3,0.24 0.7,0.35 1.2,0.35 0.46,0 0.83,-0.09 1.11,-0.27 0.27,-0.19 0.41,-0.44 0.41,-0.75z"/>
  <polygon class="fil9" points="499.24,217.66 498.02,217.66 498.02,209.58 495.58,210.48 495.58,209.38 499.05,208.07 499.24,208.07 "/>
  <path id="_1_27" class="fil9" d="M509.05 217.66l-6.25 0 0 -0.87 3.3 -3.68c0.49,-0.55 0.83,-1 1.02,-1.35 0.18,-0.35 0.27,-0.71 0.27,-1.08 0,-0.5 -0.15,-0.91 -0.45,-1.23 -0.3,-0.32 -0.7,-0.48 -1.2,-0.48 -0.61,0 -1.08,0.18 -1.41,0.52 -0.34,0.34 -0.5,0.82 -0.5,1.43l-1.22 0c0,-0.87 0.29,-1.59 0.85,-2.13 0.57,-0.54 1.33,-0.81 2.28,-0.81 0.88,0 1.58,0.23 2.1,0.7 0.52,0.46 0.77,1.08 0.77,1.86 0,0.94 -0.59,2.06 -1.79,3.36l-2.56 2.77 4.79 0 0 0.99z"/>
  <path id="_2_28" class="fil9" d="M510.9 212.88l0.48 -4.77 4.89 0 0 1.13 -3.86 0 -0.29 2.6c0.47,-0.27 1,-0.41 1.6,-0.41 0.87,0 1.56,0.29 2.07,0.86 0.51,0.58 0.77,1.36 0.77,2.33 0,0.99 -0.27,1.76 -0.8,2.33 -0.53,0.57 -1.27,0.85 -2.23,0.85 -0.84,0 -1.53,-0.24 -2.06,-0.71 -0.54,-0.46 -0.84,-1.11 -0.92,-1.94l1.15 0c0.08,0.55 0.27,0.96 0.59,1.24 0.31,0.28 0.73,0.41 1.24,0.41 0.57,0 1.01,-0.19 1.33,-0.57 0.32,-0.39 0.48,-0.92 0.48,-1.6 0,-0.63 -0.17,-1.14 -0.52,-1.53 -0.35,-0.39 -0.81,-0.58 -1.39,-0.58 -0.52,0 -0.94,0.12 -1.24,0.35l-0.32 0.26 -0.97 -0.25z"/>
  <path id="_3_29" class="fil9" d="M519.14 210.57l0.04 0.79c0.52,-0.62 1.22,-0.92 2.1,-0.92 0.99,0 1.67,0.38 2.03,1.14 0.23,-0.34 0.54,-0.62 0.92,-0.83 0.38,-0.21 0.82,-0.31 1.34,-0.31 1.56,0 2.35,0.82 2.37,2.47l0 4.75 -1.21 0 0 -4.68c0,-0.5 -0.12,-0.88 -0.35,-1.13 -0.23,-0.25 -0.62,-0.38 -1.16,-0.38 -0.45,0 -0.83,0.14 -1.13,0.4 -0.29,0.27 -0.47,0.63 -0.51,1.09l0 4.7 -1.22 0 0 -4.64c0,-1.03 -0.51,-1.55 -1.52,-1.55 -0.79,0 -1.34,0.34 -1.63,1.02l0 5.17 -1.21 0 0 -7.09 1.14 0z"/>
  <path id="_4_30" class="fil9" d="M533.91 215.78c0,-0.33 -0.12,-0.58 -0.37,-0.76 -0.25,-0.18 -0.68,-0.34 -1.29,-0.47 -0.61,-0.13 -1.1,-0.29 -1.46,-0.47 -0.36,-0.19 -0.63,-0.4 -0.8,-0.66 -0.18,-0.25 -0.26,-0.55 -0.26,-0.9 0,-0.58 0.24,-1.08 0.74,-1.48 0.49,-0.4 1.12,-0.6 1.88,-0.6 0.81,0 1.46,0.21 1.96,0.62 0.5,0.42 0.75,0.95 0.75,1.59l-1.22 0c0,-0.33 -0.14,-0.62 -0.42,-0.86 -0.28,-0.24 -0.64,-0.36 -1.07,-0.36 -0.44,0 -0.79,0.1 -1.03,0.29 -0.26,0.19 -0.38,0.44 -0.38,0.75 0,0.3 0.12,0.52 0.35,0.67 0.23,0.14 0.65,0.29 1.25,0.42 0.61,0.14 1.1,0.3 1.48,0.49 0.37,0.19 0.65,0.41 0.83,0.68 0.18,0.26 0.28,0.59 0.28,0.97 0,0.63 -0.26,1.14 -0.77,1.52 -0.5,0.39 -1.16,0.58 -1.97,0.58 -0.57,0 -1.07,-0.1 -1.51,-0.3 -0.44,-0.21 -0.78,-0.49 -1.02,-0.85 -0.25,-0.36 -0.38,-0.75 -0.38,-1.17l1.22 0c0.02,0.41 0.18,0.73 0.49,0.97 0.3,0.24 0.7,0.35 1.2,0.35 0.46,0 0.83,-0.09 1.11,-0.27 0.27,-0.19 0.41,-0.44 0.41,-0.75z"/>
  <polygon class="fil9" points="578.56,217.66 577.34,217.66 577.34,209.58 574.9,210.48 574.9,209.38 578.37,208.07 578.56,208.07 "/>
  <path id="_1_31" class="fil9" d="M582.67 212.88l0.49 -4.77 4.89 0 0 1.13 -3.86 0 -0.29 2.6c0.47,-0.27 1,-0.41 1.59,-0.41 0.87,0 1.57,0.29 2.08,0.86 0.51,0.58 0.76,1.36 0.76,2.33 0,0.99 -0.26,1.76 -0.79,2.33 -0.53,0.57 -1.28,0.85 -2.23,0.85 -0.84,0 -1.53,-0.24 -2.07,-0.71 -0.53,-0.46 -0.83,-1.11 -0.91,-1.94l1.15 0c0.07,0.55 0.27,0.96 0.59,1.24 0.31,0.28 0.72,0.41 1.24,0.41 0.56,0 1.01,-0.19 1.33,-0.57 0.32,-0.39 0.48,-0.92 0.48,-1.6 0,-0.63 -0.17,-1.14 -0.52,-1.53 -0.35,-0.39 -0.81,-0.58 -1.39,-0.58 -0.53,0 -0.94,0.12 -1.24,0.35l-0.33 0.26 -0.97 -0.25z"/>
  <path id="_2_32" class="fil9" d="M595.65 213.59c0,1.42 -0.25,2.48 -0.73,3.17 -0.49,0.69 -1.25,1.04 -2.28,1.04 -1.02,0 -1.77,-0.34 -2.26,-1.02 -0.49,-0.67 -0.74,-1.68 -0.76,-3.03l0 -1.62c0,-1.4 0.24,-2.44 0.73,-3.13 0.48,-0.68 1.24,-1.02 2.28,-1.02 1.03,0 1.78,0.33 2.27,0.99 0.48,0.65 0.73,1.67 0.75,3.05l0 1.57zm-1.22 -1.66c0,-1.03 -0.14,-1.78 -0.43,-2.25 -0.29,-0.47 -0.75,-0.71 -1.37,-0.71 -0.62,0 -1.07,0.24 -1.36,0.71 -0.28,0.46 -0.43,1.18 -0.44,2.15l0 1.95c0,1.03 0.15,1.79 0.45,2.29 0.3,0.49 0.75,0.73 1.36,0.73 0.6,0 1.05,-0.23 1.34,-0.69 0.29,-0.47 0.44,-1.2 0.45,-2.19l0 -1.99z"/>
  <path id="_3_33" class="fil9" d="M598.46 210.57l0.04 0.79c0.52,-0.62 1.22,-0.92 2.1,-0.92 0.99,0 1.67,0.38 2.03,1.14 0.23,-0.34 0.54,-0.62 0.92,-0.83 0.38,-0.21 0.82,-0.31 1.34,-0.31 1.56,0 2.35,0.82 2.37,2.47l0 4.75 -1.21 0 0 -4.68c0,-0.5 -0.12,-0.88 -0.35,-1.13 -0.23,-0.25 -0.62,-0.38 -1.17,-0.38 -0.45,0 -0.82,0.14 -1.12,0.4 -0.29,0.27 -0.47,0.63 -0.51,1.09l0 4.7 -1.22 0 0 -4.64c0,-1.03 -0.51,-1.55 -1.52,-1.55 -0.79,0 -1.34,0.34 -1.63,1.02l0 5.17 -1.21 0 0 -7.09 1.14 0z"/>
  <path id="_4_34" class="fil9" d="M613.23 215.78c0,-0.33 -0.12,-0.58 -0.37,-0.76 -0.25,-0.18 -0.68,-0.34 -1.29,-0.47 -0.61,-0.13 -1.1,-0.29 -1.46,-0.47 -0.36,-0.19 -0.63,-0.4 -0.8,-0.66 -0.18,-0.25 -0.26,-0.55 -0.26,-0.9 0,-0.58 0.24,-1.08 0.73,-1.48 0.5,-0.4 1.13,-0.6 1.89,-0.6 0.81,0 1.46,0.21 1.96,0.62 0.5,0.42 0.75,0.95 0.75,1.59l-1.22 0c0,-0.33 -0.14,-0.62 -0.42,-0.86 -0.29,-0.24 -0.64,-0.36 -1.07,-0.36 -0.44,0 -0.79,0.1 -1.04,0.29 -0.25,0.19 -0.37,0.44 -0.37,0.75 0,0.3 0.12,0.52 0.35,0.67 0.23,0.14 0.65,0.29 1.25,0.42 0.61,0.14 1.1,0.3 1.48,0.49 0.37,0.19 0.65,0.41 0.83,0.68 0.18,0.26 0.28,0.59 0.28,0.97 0,0.63 -0.26,1.14 -0.77,1.52 -0.5,0.39 -1.16,0.58 -1.97,0.58 -0.57,0 -1.07,-0.1 -1.51,-0.3 -0.44,-0.21 -0.78,-0.49 -1.02,-0.85 -0.25,-0.36 -0.38,-0.75 -0.38,-1.17l1.22 0c0.02,0.41 0.18,0.73 0.49,0.97 0.3,0.24 0.7,0.35 1.2,0.35 0.46,0 0.83,-0.09 1.11,-0.27 0.27,-0.19 0.41,-0.44 0.41,-0.75z"/>
  <polygon class="fil9" points="657.88,217.66 656.66,217.66 656.66,209.58 654.22,210.48 654.22,209.38 657.69,208.07 657.88,208.07 "/>
  <polygon id="_1_35" class="fil9" points="667.6,208.79 663.65,217.66 662.37,217.66 666.31,209.11 661.15,209.11 661.15,208.11 667.6,208.11 "/>
  <path id="_2_36" class="fil9" d="M669.54 212.88l0.48 -4.77 4.89 0 0 1.13 -3.86 0 -0.29 2.6c0.47,-0.27 1,-0.41 1.59,-0.41 0.88,0 1.57,0.29 2.08,0.86 0.51,0.58 0.77,1.36 0.77,2.33 0,0.99 -0.27,1.76 -0.8,2.33 -0.53,0.57 -1.28,0.85 -2.23,0.85 -0.84,0 -1.53,-0.24 -2.07,-0.71 -0.53,-0.46 -0.83,-1.11 -0.91,-1.94l1.15 0c0.08,0.55 0.27,0.96 0.59,1.24 0.31,0.28 0.73,0.41 1.24,0.41 0.57,0 1.01,-0.19 1.33,-0.57 0.32,-0.39 0.48,-0.92 0.48,-1.6 0,-0.63 -0.17,-1.14 -0.52,-1.53 -0.35,-0.39 -0.81,-0.58 -1.39,-0.58 -0.53,0 -0.94,0.12 -1.24,0.35l-0.32 0.26 -0.97 -0.25z"/>
  <path id="_3_37" class="fil9" d="M677.78 210.57l0.03 0.79c0.53,-0.62 1.23,-0.92 2.11,-0.92 0.99,0 1.67,0.38 2.03,1.14 0.23,-0.34 0.54,-0.62 0.92,-0.83 0.38,-0.21 0.82,-0.31 1.34,-0.31 1.56,0 2.35,0.82 2.37,2.47l0 4.75 -1.21 0 0 -4.68c0,-0.5 -0.12,-0.88 -0.35,-1.13 -0.23,-0.25 -0.62,-0.38 -1.17,-0.38 -0.45,0 -0.82,0.14 -1.12,0.4 -0.29,0.27 -0.47,0.63 -0.51,1.09l0 4.7 -1.22 0 0 -4.64c0,-1.03 -0.51,-1.55 -1.52,-1.55 -0.79,0 -1.34,0.34 -1.63,1.02l0 5.17 -1.22 0 0 -7.09 1.15 0z"/>
  <path id="_4_38" class="fil9" d="M692.55 215.78c0,-0.33 -0.12,-0.58 -0.37,-0.76 -0.25,-0.18 -0.68,-0.34 -1.29,-0.47 -0.62,-0.13 -1.1,-0.29 -1.46,-0.47 -0.36,-0.19 -0.63,-0.4 -0.8,-0.66 -0.18,-0.25 -0.26,-0.55 -0.26,-0.9 0,-0.58 0.24,-1.08 0.73,-1.48 0.5,-0.4 1.13,-0.6 1.89,-0.6 0.8,0 1.46,0.21 1.96,0.62 0.5,0.42 0.75,0.95 0.75,1.59l-1.22 0c0,-0.33 -0.14,-0.62 -0.42,-0.86 -0.29,-0.24 -0.64,-0.36 -1.07,-0.36 -0.44,0 -0.79,0.1 -1.04,0.29 -0.25,0.19 -0.37,0.44 -0.37,0.75 0,0.3 0.12,0.52 0.35,0.67 0.23,0.14 0.65,0.29 1.25,0.42 0.61,0.14 1.1,0.3 1.48,0.49 0.37,0.19 0.65,0.41 0.83,0.68 0.18,0.26 0.27,0.59 0.27,0.97 0,0.63 -0.25,1.14 -0.76,1.52 -0.5,0.39 -1.16,0.58 -1.97,0.58 -0.57,0 -1.07,-0.1 -1.51,-0.3 -0.44,-0.21 -0.78,-0.49 -1.03,-0.85 -0.24,-0.36 -0.37,-0.75 -0.37,-1.17l1.22 0c0.02,0.41 0.18,0.73 0.49,0.97 0.3,0.24 0.7,0.35 1.2,0.35 0.46,0 0.83,-0.09 1.1,-0.27 0.28,-0.19 0.42,-0.44 0.42,-0.75z"/>
  <path class="fil9" d="M739.47 217.66l-6.26 0 0 -0.87 3.31 -3.68c0.49,-0.55 0.83,-1 1.01,-1.35 0.19,-0.35 0.28,-0.71 0.28,-1.08 0,-0.5 -0.15,-0.91 -0.45,-1.23 -0.3,-0.32 -0.7,-0.48 -1.21,-0.48 -0.6,0 -1.07,0.18 -1.4,0.52 -0.34,0.34 -0.51,0.82 -0.51,1.43l-1.21 0c0,-0.87 0.28,-1.59 0.85,-2.13 0.57,-0.54 1.32,-0.81 2.27,-0.81 0.89,0 1.59,0.23 2.11,0.7 0.51,0.46 0.77,1.08 0.77,1.86 0,0.94 -0.6,2.06 -1.8,3.36l-2.55 2.77 4.79 0 0 0.99z"/>
  <path id="_1_39" class="fil9" d="M746.74 213.59c0,1.42 -0.24,2.48 -0.73,3.17 -0.48,0.69 -1.24,1.04 -2.27,1.04 -1.02,0 -1.77,-0.34 -2.26,-1.02 -0.49,-0.67 -0.75,-1.68 -0.76,-3.03l0 -1.62c0,-1.4 0.24,-2.44 0.72,-3.13 0.49,-0.68 1.25,-1.02 2.29,-1.02 1.02,0 1.78,0.33 2.26,0.99 0.49,0.65 0.74,1.67 0.75,3.05l0 1.57zm-1.21 -1.66c0,-1.03 -0.14,-1.78 -0.43,-2.25 -0.29,-0.47 -0.75,-0.71 -1.37,-0.71 -0.63,0 -1.08,0.24 -1.36,0.71 -0.29,0.46 -0.43,1.18 -0.44,2.15l0 1.95c0,1.03 0.15,1.79 0.45,2.29 0.3,0.49 0.75,0.73 1.36,0.73 0.6,0 1.04,-0.23 1.33,-0.69 0.3,-0.47 0.45,-1.2 0.46,-2.19l0 -1.99z"/>
  <path id="_2_40" class="fil9" d="M754.28 213.59c0,1.42 -0.24,2.48 -0.72,3.17 -0.49,0.69 -1.25,1.04 -2.28,1.04 -1.02,0 -1.77,-0.34 -2.26,-1.02 -0.49,-0.67 -0.74,-1.68 -0.76,-3.03l0 -1.62c0,-1.4 0.24,-2.44 0.73,-3.13 0.48,-0.68 1.24,-1.02 2.28,-1.02 1.03,0 1.78,0.33 2.27,0.99 0.48,0.65 0.73,1.67 0.74,3.05l0 1.57zm-1.21 -1.66c0,-1.03 -0.14,-1.78 -0.43,-2.25 -0.29,-0.47 -0.75,-0.71 -1.37,-0.71 -0.62,0 -1.08,0.24 -1.36,0.71 -0.28,0.46 -0.43,1.18 -0.44,2.15l0 1.95c0,1.03 0.15,1.79 0.45,2.29 0.3,0.49 0.75,0.73 1.36,0.73 0.6,0 1.05,-0.23 1.34,-0.69 0.29,-0.47 0.44,-1.2 0.45,-2.19l0 -1.99z"/>
  <path id="_3_41" class="fil9" d="M757.1 210.57l0.03 0.79c0.53,-0.62 1.23,-0.92 2.11,-0.92 0.99,0 1.67,0.38 2.03,1.14 0.23,-0.34 0.54,-0.62 0.92,-0.83 0.37,-0.21 0.82,-0.31 1.34,-0.31 1.56,0 2.35,0.82 2.37,2.47l0 4.75 -1.21 0 0 -4.68c0,-0.5 -0.12,-0.88 -0.35,-1.13 -0.23,-0.25 -0.62,-0.38 -1.17,-0.38 -0.45,0 -0.82,0.14 -1.12,0.4 -0.29,0.27 -0.47,0.63 -0.52,1.09l0 4.7 -1.22 0 0 -4.64c0,-1.03 -0.5,-1.55 -1.51,-1.55 -0.8,0 -1.34,0.34 -1.63,1.02l0 5.17 -1.22 0 0 -7.09 1.15 0z"/>
  <path id="_4_42" class="fil9" d="M771.87 215.78c0,-0.33 -0.12,-0.58 -0.37,-0.76 -0.25,-0.18 -0.68,-0.34 -1.29,-0.47 -0.62,-0.13 -1.1,-0.29 -1.46,-0.47 -0.37,-0.19 -0.63,-0.4 -0.8,-0.66 -0.18,-0.25 -0.26,-0.55 -0.26,-0.9 0,-0.58 0.24,-1.08 0.73,-1.48 0.5,-0.4 1.12,-0.6 1.89,-0.6 0.8,0 1.46,0.21 1.96,0.62 0.5,0.42 0.75,0.95 0.75,1.59l-1.22 0c0,-0.33 -0.14,-0.62 -0.42,-0.86 -0.29,-0.24 -0.64,-0.36 -1.07,-0.36 -0.44,0 -0.79,0.1 -1.04,0.29 -0.25,0.19 -0.37,0.44 -0.37,0.75 0,0.3 0.12,0.52 0.35,0.67 0.23,0.14 0.65,0.29 1.25,0.42 0.61,0.14 1.1,0.3 1.48,0.49 0.37,0.19 0.65,0.41 0.83,0.68 0.18,0.26 0.27,0.59 0.27,0.97 0,0.63 -0.25,1.14 -0.76,1.52 -0.5,0.39 -1.16,0.58 -1.97,0.58 -0.57,0 -1.07,-0.1 -1.51,-0.3 -0.44,-0.21 -0.78,-0.49 -1.03,-0.85 -0.24,-0.36 -0.37,-0.75 -0.37,-1.17l1.22 0c0.02,0.41 0.18,0.73 0.49,0.97 0.3,0.24 0.7,0.35 1.2,0.35 0.46,0 0.83,-0.09 1.1,-0.27 0.28,-0.19 0.42,-0.44 0.42,-0.75z"/>
  <polygon class="fil9" points="415.17,234.84 411.04,234.84 411.04,246.08 408.26,246.08 408.26,234.84 404.18,234.84 404.18,232.58 415.17,232.58 "/>
  <polygon id="_1_43" class="fil9" points="424.88,240.22 419.54,240.22 419.54,243.84 425.81,243.84 425.81,246.08 416.76,246.08 416.76,232.58 425.79,232.58 425.79,234.84 419.54,234.84 419.54,238.05 424.88,238.05 "/>
  <polygon id="_2_44" class="fil9" points="431.07,232.58 434.54,242.37 437.99,232.58 441.64,232.58 441.64,246.08 438.85,246.08 438.85,242.39 439.13,236.02 435.49,246.08 433.57,246.08 429.94,236.03 430.22,242.39 430.22,246.08 427.44,246.08 427.44,232.58 "/>
  <path id="_3_45" class="fil9" d="M446.85 241.34l0 4.74 -2.78 0 0 -13.5 5.27 0c1.01,0 1.9,0.19 2.67,0.56 0.77,0.37 1.36,0.9 1.78,1.58 0.41,0.69 0.62,1.47 0.62,2.34 0,1.32 -0.46,2.37 -1.36,3.13 -0.91,0.76 -2.16,1.15 -3.76,1.15l-2.44 0zm0 -2.26l2.49 0c0.73,0 1.29,-0.18 1.68,-0.52 0.39,-0.35 0.58,-0.84 0.58,-1.48 0,-0.66 -0.2,-1.2 -0.59,-1.61 -0.39,-0.41 -0.92,-0.61 -1.61,-0.63l-2.55 0 0 4.24z"/>
  <path id="_4_46" class="fil9" d="M467.4 239.64c0,1.33 -0.24,2.49 -0.7,3.5 -0.48,1 -1.15,1.77 -2.02,2.32 -0.88,0.54 -1.88,0.81 -3.01,0.81 -1.12,0 -2.12,-0.27 -2.99,-0.8 -0.88,-0.54 -1.56,-1.31 -2.04,-2.31 -0.48,-1 -0.73,-2.15 -0.73,-3.45l0 -0.66c0,-1.33 0.23,-2.5 0.71,-3.52 0.48,-1.01 1.16,-1.78 2.03,-2.32 0.88,-0.54 1.88,-0.82 3,-0.82 1.13,0 2.13,0.28 3,0.82 0.88,0.54 1.55,1.31 2.03,2.32 0.48,1.02 0.72,2.18 0.72,3.51l0 0.6zm-2.82 -0.61c0,-1.42 -0.25,-2.5 -0.76,-3.23 -0.51,-0.74 -1.23,-1.11 -2.17,-1.11 -0.93,0 -1.65,0.37 -2.16,1.09 -0.51,0.73 -0.76,1.8 -0.77,3.2l0 0.66c0,1.38 0.25,2.45 0.76,3.21 0.51,0.77 1.24,1.15 2.19,1.15 0.93,0 1.65,-0.37 2.15,-1.11 0.5,-0.73 0.76,-1.8 0.76,-3.2l0 -0.66z"/>
  <path class="fil9" d="M386.39 202.94c0,0.3 -0.08,0.57 -0.24,0.8 -0.16,0.24 -0.37,0.42 -0.64,0.55 0.31,0.14 0.56,0.34 0.74,0.59 0.19,0.26 0.28,0.56 0.28,0.88 0,0.52 -0.18,0.94 -0.53,1.25 -0.35,0.31 -0.81,0.46 -1.38,0.46 -0.58,0 -1.04,-0.15 -1.39,-0.46 -0.35,-0.31 -0.52,-0.73 -0.52,-1.25 0,-0.32 0.09,-0.62 0.26,-0.88 0.18,-0.26 0.43,-0.46 0.74,-0.59 -0.27,-0.13 -0.48,-0.32 -0.63,-0.55 -0.16,-0.23 -0.23,-0.5 -0.23,-0.8 0,-0.5 0.16,-0.91 0.48,-1.2 0.33,-0.3 0.76,-0.45 1.29,-0.45 0.53,0 0.95,0.15 1.28,0.45 0.33,0.29 0.49,0.7 0.49,1.2zm-0.63 2.81c0,-0.34 -0.1,-0.62 -0.32,-0.83 -0.21,-0.21 -0.49,-0.31 -0.83,-0.31 -0.34,0 -0.62,0.1 -0.83,0.31 -0.21,0.21 -0.31,0.48 -0.31,0.83 0,0.34 0.1,0.61 0.3,0.8 0.21,0.2 0.49,0.29 0.85,0.29 0.35,0 0.64,-0.09 0.84,-0.29 0.2,-0.2 0.3,-0.47 0.3,-0.8zm-1.14 -3.83c-0.3,0 -0.55,0.09 -0.73,0.28 -0.19,0.18 -0.28,0.44 -0.28,0.75 0,0.31 0.09,0.56 0.28,0.75 0.18,0.19 0.42,0.28 0.73,0.28 0.3,0 0.55,-0.09 0.73,-0.28 0.18,-0.19 0.27,-0.44 0.27,-0.75 0,-0.3 -0.09,-0.55 -0.28,-0.74 -0.19,-0.2 -0.43,-0.29 -0.72,-0.29z"/>
  <polygon id="_1_47" class="fil9" points="391.37,201.81 388.88,207.39 388.08,207.39 390.56,202 387.31,202 387.31,201.38 391.37,201.38 "/>
  <path id="_2_48" class="fil9" d="M392.29 208.59l-0.43 -0.3c0.25,-0.36 0.39,-0.74 0.4,-1.12l0 -0.69 0.75 0 0 0.6c0,0.28 -0.07,0.56 -0.21,0.84 -0.13,0.27 -0.31,0.5 -0.51,0.67z"/>
  <path id="_3_49" class="fil9" d="M394.25 204.38l0.3 -3 3.08 0 0 0.71 -2.43 0 -0.18 1.63c0.29,-0.17 0.63,-0.26 1,-0.26 0.55,0 0.98,0.18 1.3,0.55 0.33,0.36 0.49,0.85 0.49,1.46 0,0.62 -0.17,1.11 -0.51,1.47 -0.33,0.35 -0.8,0.53 -1.4,0.53 -0.53,0 -0.96,-0.15 -1.3,-0.44 -0.33,-0.3 -0.52,-0.7 -0.57,-1.22l0.72 0c0.05,0.34 0.17,0.6 0.37,0.77 0.2,0.18 0.46,0.26 0.78,0.26 0.36,0 0.64,-0.12 0.84,-0.36 0.2,-0.24 0.3,-0.57 0.3,-1 0,-0.4 -0.11,-0.72 -0.33,-0.97 -0.21,-0.24 -0.51,-0.36 -0.87,-0.36 -0.33,0 -0.59,0.07 -0.78,0.22l-0.2 0.16 -0.61 -0.15z"/>
  <path id="_4_50" class="fil9" d="M399.43 202.92l0.02 0.5c0.33,-0.39 0.77,-0.58 1.33,-0.58 0.62,0 1.05,0.24 1.27,0.72 0.15,-0.22 0.35,-0.39 0.58,-0.52 0.24,-0.13 0.52,-0.2 0.85,-0.2 0.98,0 1.47,0.52 1.49,1.55l0 3 -0.76 0 0 -2.95c0,-0.32 -0.08,-0.56 -0.22,-0.71 -0.15,-0.16 -0.39,-0.24 -0.74,-0.24 -0.28,0 -0.51,0.08 -0.7,0.25 -0.19,0.17 -0.3,0.4 -0.33,0.68l0 2.97 -0.76 0 0 -2.93c0,-0.65 -0.32,-0.97 -0.96,-0.97 -0.5,0 -0.84,0.21 -1.02,0.64l0 3.26 -0.77 0 0 -4.47 0.72 0z"/>
  <path id="_5_51" class="fil9" d="M408.73 206.2c0,-0.2 -0.08,-0.37 -0.24,-0.48 -0.15,-0.11 -0.42,-0.21 -0.81,-0.29 -0.39,-0.09 -0.69,-0.19 -0.92,-0.3 -0.23,-0.12 -0.39,-0.25 -0.5,-0.41 -0.11,-0.16 -0.17,-0.35 -0.17,-0.57 0,-0.37 0.16,-0.68 0.47,-0.93 0.31,-0.25 0.7,-0.38 1.18,-0.38 0.51,0 0.92,0.13 1.24,0.39 0.31,0.26 0.47,0.6 0.47,1l-0.77 0c0,-0.21 -0.09,-0.39 -0.26,-0.54 -0.18,-0.15 -0.41,-0.23 -0.68,-0.23 -0.27,0 -0.49,0.07 -0.65,0.19 -0.16,0.12 -0.23,0.27 -0.23,0.47 0,0.19 0.07,0.32 0.22,0.42 0.14,0.09 0.41,0.18 0.79,0.27 0.38,0.08 0.69,0.18 0.92,0.3 0.24,0.12 0.41,0.26 0.53,0.43 0.11,0.17 0.17,0.37 0.17,0.61 0,0.4 -0.16,0.72 -0.48,0.96 -0.32,0.24 -0.73,0.36 -1.24,0.36 -0.36,0 -0.67,-0.06 -0.95,-0.19 -0.28,-0.13 -0.49,-0.3 -0.65,-0.53 -0.15,-0.23 -0.23,-0.47 -0.23,-0.74l0.76 0c0.02,0.26 0.12,0.46 0.31,0.61 0.19,0.15 0.45,0.22 0.76,0.22 0.29,0 0.52,-0.05 0.69,-0.17 0.18,-0.12 0.27,-0.27 0.27,-0.47z"/>
  <line class="fil5 str3" x1="118.51" y1="197.52" x2="773.26" y2= "197.52" />
  <polygon class="fil5 str3" points="781.07,197.52 777.17,199.77 773.26,202.02 773.26,197.52 773.26,193.01 777.17,195.27 "/>
  <polygon class="fil9" points="700.04,207.39 699.27,207.39 699.27,202.3 697.73,202.86 697.73,202.17 699.92,201.35 700.04,201.35 "/>
  <path id="_1_52" class="fil9" d="M705.92 202.94c0,0.3 -0.08,0.57 -0.24,0.8 -0.16,0.24 -0.37,0.42 -0.64,0.55 0.31,0.14 0.56,0.34 0.74,0.59 0.19,0.26 0.28,0.56 0.28,0.88 0,0.52 -0.18,0.94 -0.53,1.25 -0.35,0.31 -0.81,0.46 -1.38,0.46 -0.58,0 -1.04,-0.15 -1.39,-0.46 -0.35,-0.31 -0.52,-0.73 -0.52,-1.25 0,-0.32 0.09,-0.62 0.26,-0.88 0.18,-0.26 0.43,-0.46 0.74,-0.59 -0.27,-0.13 -0.48,-0.32 -0.63,-0.55 -0.16,-0.23 -0.23,-0.5 -0.23,-0.8 0,-0.5 0.16,-0.91 0.48,-1.2 0.33,-0.3 0.76,-0.45 1.29,-0.45 0.53,0 0.95,0.15 1.28,0.45 0.33,0.29 0.49,0.7 0.49,1.2zm-0.63 2.81c0,-0.34 -0.1,-0.62 -0.31,-0.83 -0.22,-0.21 -0.5,-0.31 -0.84,-0.31 -0.34,0 -0.62,0.1 -0.83,0.31 -0.21,0.21 -0.31,0.48 -0.31,0.83 0,0.34 0.1,0.61 0.3,0.8 0.21,0.2 0.49,0.29 0.85,0.29 0.35,0 0.64,-0.09 0.84,-0.29 0.2,-0.2 0.3,-0.47 0.3,-0.8zm-1.14 -3.83c-0.3,0 -0.55,0.09 -0.73,0.28 -0.19,0.18 -0.28,0.44 -0.28,0.75 0,0.31 0.09,0.56 0.28,0.75 0.18,0.19 0.42,0.28 0.73,0.28 0.3,0 0.55,-0.09 0.73,-0.28 0.18,-0.19 0.27,-0.44 0.27,-0.75 0,-0.3 -0.09,-0.55 -0.28,-0.74 -0.19,-0.2 -0.43,-0.29 -0.72,-0.29z"/>
  <polygon id="_2_53" class="fil9" points="710.9,201.81 708.41,207.39 707.61,207.39 710.09,202 706.84,202 706.84,201.38 710.9,201.38 "/>
  <path id="_3_54" class="fil9" d="M711.82 208.59l-0.43 -0.3c0.25,-0.36 0.39,-0.74 0.4,-1.12l0 -0.69 0.75 0 0 0.6c0,0.28 -0.07,0.56 -0.21,0.84 -0.13,0.27 -0.31,0.5 -0.51,0.67z"/>
  <path id="_4_55" class="fil9" d="M713.78 204.38l0.3 -3 3.08 0 0 0.71 -2.43 0 -0.18 1.63c0.29,-0.17 0.63,-0.26 1,-0.26 0.55,0 0.98,0.18 1.3,0.55 0.33,0.36 0.49,0.85 0.49,1.46 0,0.62 -0.17,1.11 -0.51,1.47 -0.33,0.35 -0.8,0.53 -1.4,0.53 -0.53,0 -0.96,-0.15 -1.3,-0.44 -0.33,-0.3 -0.52,-0.7 -0.57,-1.22l0.72 0c0.05,0.34 0.17,0.6 0.37,0.77 0.2,0.18 0.46,0.26 0.78,0.26 0.36,0 0.64,-0.12 0.84,-0.36 0.2,-0.24 0.3,-0.57 0.3,-1 0,-0.4 -0.11,-0.72 -0.33,-0.97 -0.21,-0.24 -0.51,-0.36 -0.87,-0.36 -0.33,0 -0.59,0.07 -0.78,0.22l-0.2 0.16 -0.61 -0.15z"/>
  <path id="_5_56" class="fil9" d="M718.96 202.92l0.02 0.5c0.33,-0.39 0.77,-0.58 1.33,-0.58 0.62,0 1.05,0.24 1.27,0.72 0.15,-0.22 0.35,-0.39 0.58,-0.52 0.24,-0.13 0.52,-0.2 0.85,-0.2 0.98,0 1.47,0.52 1.49,1.55l0 3 -0.76 0 0 -2.95c0,-0.32 -0.08,-0.56 -0.22,-0.71 -0.15,-0.16 -0.39,-0.24 -0.74,-0.24 -0.28,0 -0.51,0.08 -0.7,0.25 -0.19,0.17 -0.3,0.4 -0.33,0.68l0 2.97 -0.76 0 0 -2.93c0,-0.65 -0.32,-0.97 -0.96,-0.97 -0.5,0 -0.84,0.21 -1.02,0.64l0 3.26 -0.77 0 0 -4.47 0.72 0z"/>
  <path id="_6_57" class="fil9" d="M728.26 206.2c0,-0.2 -0.08,-0.37 -0.24,-0.48 -0.15,-0.11 -0.42,-0.21 -0.81,-0.29 -0.39,-0.09 -0.69,-0.19 -0.92,-0.3 -0.23,-0.12 -0.39,-0.25 -0.5,-0.41 -0.11,-0.16 -0.17,-0.35 -0.17,-0.57 0,-0.37 0.16,-0.68 0.47,-0.93 0.31,-0.25 0.7,-0.38 1.19,-0.38 0.5,0 0.91,0.13 1.23,0.39 0.31,0.26 0.47,0.6 0.47,1l-0.77 0c0,-0.21 -0.09,-0.39 -0.26,-0.54 -0.18,-0.15 -0.41,-0.23 -0.67,-0.23 -0.28,0 -0.5,0.07 -0.66,0.19 -0.15,0.12 -0.23,0.27 -0.23,0.47 0,0.19 0.07,0.32 0.22,0.42 0.14,0.09 0.41,0.18 0.79,0.27 0.38,0.08 0.69,0.18 0.92,0.3 0.24,0.12 0.41,0.26 0.53,0.43 0.11,0.17 0.17,0.37 0.17,0.61 0,0.4 -0.16,0.72 -0.48,0.96 -0.32,0.24 -0.73,0.36 -1.24,0.36 -0.36,0 -0.67,-0.06 -0.95,-0.19 -0.28,-0.13 -0.49,-0.3 -0.65,-0.53 -0.15,-0.23 -0.23,-0.47 -0.23,-0.74l0.76 0c0.02,0.26 0.12,0.46 0.31,0.61 0.19,0.15 0.45,0.22 0.76,0.22 0.29,0 0.52,-0.05 0.69,-0.17 0.18,-0.12 0.27,-0.27 0.27,-0.47z"/>
 </g>
</svg>
