<?xml version="1.0" encoding="UTF-8"?>
<!DOCTYPE svg PUBLIC "-//W3C//DTD SVG 1.1//EN" "http://www.w3.org/Graphics/SVG/1.1/DTD/svg11.dtd">
<!-- Creator: CorelDRAW 2021 (64 Bit) -->
<svg xmlns="http://www.w3.org/2000/svg" xml:space="preserve" width="998px" height="314px" version="1.1" style="shape-rendering:geometricPrecision; text-rendering:geometricPrecision; image-rendering:optimizeQuality; fill-rule:evenodd; clip-rule:evenodd"
viewBox="0 0 896.71 281.93"
 xmlns:xlink="http://www.w3.org/1999/xlink"
 xmlns:xodm="http://www.corel.com/coreldraw/odm/2003">
 <defs>
  <style type="text/css">
   <![CDATA[
    .str1 {stroke:#F076A2;stroke-width:2.56;stroke-miterlimit:22.9256}
    .str2 {stroke:#FAAB43;stroke-width:2.56;stroke-miterlimit:22.9256}
    .str0 {stroke:#F076A2;stroke-width:1.28;stroke-miterlimit:22.9256;stroke-dasharray:2.560000 6.410000}
    .fil6 {fill:none}
    .fil2 {fill:#42AFFA}
    .fil3 {fill:#AFFA42}
    .fil8 {fill:#42AFFA;fill-rule:nonzero}
    .fil9 {fill:#AFFA42;fill-rule:nonzero}
    .fil5 {fill:#F076A2;fill-rule:nonzero}
    .fil7 {fill:#FAAB43;fill-rule:nonzero}
    .fil4 {fill:white;fill-rule:nonzero}
    .fil0 {fill:#42AFFA;fill-opacity:0.149020}
    .fil1 {fill:#AFFA42;fill-opacity:0.149020}
   ]]>
  </style>
 </defs>
 <g id="Camada_x0020_1">
  <metadata id="CorelCorpID_0Corel-Layer"/>
  <polygon class="fil0" points="135.67,226.11 135.67,89.91 862.09,89.91 862.09,226.11 "/>
  <polygon class="fil1" points="135.67,89.91 135.67,44.51 862.09,44.51 862.09,89.91 "/>
  <rect class="fil2" x="135.67" y="180.71" width="90.8" height="45.4" rx="2.34" ry="6.96"/>
  <rect class="fil2" x="226.47" y="135.31" width="90.8" height="45.4" rx="2.34" ry="6.96"/>
  <rect class="fil2" x="317.27" y="89.91" width="90.8" height="45.4" rx="2.34" ry="6.96"/>
  <rect class="fil3" x="408.08" y="44.51" width="90.8" height="45.4" rx="2.34" ry="6.96"/>
  <rect class="fil2" x="498.88" y="180.71" width="90.8" height="45.4" rx="2.34" ry="6.96"/>
  <rect class="fil2" x="589.68" y="135.31" width="90.8" height="45.4" rx="2.34" ry="6.96"/>
  <rect class="fil2" x="680.48" y="89.91" width="90.8" height="45.4" rx="2.34" ry="6.96"/>
  <rect class="fil3" x="771.28" y="44.51" width="90.8" height="45.4" rx="2.34" ry="6.96"/>
  <path class="fil4" d="M186.51 212.31l-10.91 0 -2.07 6.2 -6.61 0 11.23 -30.19 5.77 0 11.3 30.19 -6.62 0 -2.09 -6.2zm-9.23 -5.06l7.55 0 -3.79 -11.3 -3.76 11.3z"/>
  <path class="fil4" d="M260.66 173.11l0 -30.19 10.57 0c3.66,0 6.44,0.7 8.33,2.11 1.9,1.4 2.85,3.46 2.85,6.17 0,1.48 -0.38,2.78 -1.15,3.91 -0.75,1.12 -1.81,1.95 -3.17,2.48 1.55,0.39 2.77,1.16 3.66,2.34 0.89,1.17 1.34,2.61 1.34,4.31 0,2.9 -0.93,5.09 -2.78,6.59 -1.85,1.49 -4.49,2.25 -7.91,2.28l-11.74 0zm6.22 -13.12l0 8.1 5.32 0c1.47,0 2.62,-0.34 3.44,-1.04 0.82,-0.69 1.23,-1.65 1.23,-2.88 0,-2.75 -1.43,-4.14 -4.29,-4.18l-5.7 0zm0 -4.42l4.6 0c3.14,-0.06 4.71,-1.3 4.71,-3.75 0,-1.37 -0.4,-2.35 -1.2,-2.95 -0.79,-0.6 -2.04,-0.9 -3.76,-0.9l-4.35 0 0 7.6z"/>
  <path class="fil4" d="M374.96 117.66c-0.24,3.25 -1.43,5.81 -3.6,7.67 -2.16,1.86 -5.01,2.8 -8.55,2.8 -3.87,0 -6.91,-1.3 -9.13,-3.91 -2.22,-2.61 -3.33,-6.19 -3.33,-10.74l0 -1.85c0,-2.9 0.51,-5.46 1.54,-7.67 1.01,-2.21 2.48,-3.91 4.38,-5.09 1.9,-1.18 4.11,-1.78 6.62,-1.78 3.49,0 6.29,0.93 8.42,2.8 2.13,1.86 3.36,4.48 3.69,7.86l-6.22 0c-0.15,-1.95 -0.7,-3.37 -1.63,-4.25 -0.93,-0.88 -2.35,-1.31 -4.26,-1.31 -2.07,0 -3.62,0.74 -4.65,2.23 -1.03,1.48 -1.56,3.79 -1.58,6.92l0 2.27c0,3.27 0.48,5.65 1.47,7.16 1,1.51 2.55,2.26 4.68,2.26 1.92,0 3.36,-0.44 4.3,-1.31 0.95,-0.87 1.49,-2.22 1.63,-4.06l6.22 0z"/>
  <path class="fil4" d="M532.74 218.51l0 -30.19 9.29 0c2.65,0 5.03,0.59 7.12,1.79 2.1,1.19 3.73,2.9 4.91,5.1 1.17,2.21 1.76,4.71 1.76,7.52l0 1.39c0,2.8 -0.58,5.3 -1.74,7.48 -1.15,2.19 -2.78,3.88 -4.88,5.08 -2.1,1.2 -4.47,1.81 -7.11,1.83l-9.35 0zm6.22 -25.14l0 20.13 3.01 0c2.43,0 4.29,-0.8 5.57,-2.38 1.29,-1.59 1.94,-3.87 1.97,-6.82l0 -1.59c0,-3.06 -0.63,-5.39 -1.91,-6.97 -1.27,-1.58 -3.13,-2.37 -5.57,-2.37l-3.07 0z"/>
  <polygon class="fil4" points="461.52,69.18 449.58,69.18 449.58,77.29 463.59,77.29 463.59,82.3 443.36,82.3 443.36,52.11 463.55,52.11 463.55,57.17 449.58,57.17 449.58,64.34 461.52,64.34 "/>
  <polygon class="fil4" points="825.02,69.95 813.08,69.95 813.08,82.3 806.86,82.3 806.86,52.11 826.51,52.11 826.51,57.17 813.08,57.17 813.08,64.94 825.02,64.94 "/>
  <path class="fil4" d="M640.52 166.91l-10.91 0 -2.07 6.2 -6.61 0 11.23 -30.19 5.77 0 11.3 30.19 -6.62 0 -2.09 -6.2zm-9.23 -5.06l7.55 0 -3.79 -11.3 -3.76 11.3z"/>
  <path class="fil4" d="M714.67 127.7l0 -30.18 10.57 0c3.67,0 6.45,0.7 8.34,2.1 1.89,1.41 2.84,3.46 2.84,6.18 0,1.47 -0.38,2.78 -1.15,3.91 -0.75,1.12 -1.81,1.95 -3.17,2.48 1.55,0.38 2.77,1.16 3.66,2.34 0.89,1.17 1.34,2.61 1.34,4.31 0,2.9 -0.93,5.09 -2.77,6.59 -1.86,1.49 -4.5,2.25 -7.92,2.27l-11.74 0zm6.22 -13.12l0 8.11 5.33 0c1.46,0 2.61,-0.34 3.43,-1.04 0.82,-0.69 1.23,-1.65 1.23,-2.88 0,-2.75 -1.43,-4.14 -4.29,-4.19l-5.7 0zm0 -4.41l4.6 0c3.14,-0.06 4.71,-1.3 4.71,-3.75 0,-1.37 -0.4,-2.35 -1.2,-2.95 -0.79,-0.6 -2.04,-0.9 -3.76,-0.9l-4.35 0 0 7.6z"/>
  <g id="_2501098314144">
   <rect class="fil2" x="345.35" width="27.24" height="27.24" rx="0.7" ry="4.17"/>
   <path class="fil4" d="M392.01 5.91l0 10.94c-0.01,1.51 -0.49,2.75 -1.43,3.72 -0.95,0.96 -2.23,1.51 -3.85,1.62l-0.56 0.02c-1.76,0 -3.16,-0.47 -4.21,-1.42 -1.05,-0.95 -1.57,-2.26 -1.59,-3.92l0 -10.96 2.1 0 0 10.88c0,1.17 0.32,2.07 0.96,2.72 0.64,0.64 1.55,0.96 2.74,0.96 1.2,0 2.12,-0.32 2.75,-0.96 0.64,-0.64 0.96,-1.54 0.96,-2.7l0 -10.9 2.13 0z"/>
   <path id="_1" class="fil4" d="M402 18.82c0,-0.55 -0.2,-0.98 -0.62,-1.28 -0.42,-0.31 -1.14,-0.57 -2.18,-0.79 -1.03,-0.22 -1.85,-0.49 -2.46,-0.8 -0.61,-0.31 -1.05,-0.67 -1.34,-1.1 -0.3,-0.43 -0.44,-0.94 -0.44,-1.53 0,-0.98 0.41,-1.81 1.24,-2.48 0.83,-0.68 1.89,-1.02 3.18,-1.02 1.35,0 2.45,0.35 3.29,1.05 0.85,0.7 1.27,1.59 1.27,2.68l-2.06 0c0,-0.56 -0.23,-1.04 -0.71,-1.45 -0.47,-0.4 -1.07,-0.61 -1.79,-0.61 -0.75,0 -1.33,0.17 -1.75,0.49 -0.42,0.32 -0.63,0.75 -0.63,1.27 0,0.49 0.2,0.86 0.59,1.12 0.39,0.25 1.09,0.49 2.11,0.71 1.02,0.23 1.85,0.5 2.48,0.82 0.63,0.32 1.1,0.7 1.41,1.15 0.3,0.44 0.46,0.98 0.46,1.63 0,1.07 -0.43,1.92 -1.29,2.57 -0.85,0.64 -1.96,0.96 -3.32,0.96 -0.96,0 -1.8,-0.16 -2.54,-0.5 -0.74,-0.34 -1.31,-0.81 -1.73,-1.42 -0.41,-0.61 -0.62,-1.27 -0.62,-1.97l2.04 0c0.04,0.68 0.31,1.22 0.83,1.62 0.5,0.4 1.18,0.6 2.02,0.6 0.77,0 1.4,-0.15 1.86,-0.47 0.47,-0.31 0.7,-0.73 0.7,-1.25z"/>
   <path id="_2" class="fil4" d="M414.08 20.81c-0.79,0.94 -1.96,1.4 -3.5,1.4 -1.27,0 -2.24,-0.36 -2.91,-1.1 -0.67,-0.75 -1,-1.84 -1.01,-3.29l0 -7.77 2.04 0 0 7.71c0,1.81 0.74,2.71 2.21,2.71 1.56,0 2.6,-0.58 3.11,-1.74l0 -8.68 2.05 0 0 11.94 -1.95 0 -0.04 -1.18z"/>
   <path id="_3" class="fil4" d="M426.55 21.99c-0.12,-0.24 -0.21,-0.65 -0.29,-1.26 -0.95,0.99 -2.08,1.48 -3.4,1.48 -1.18,0 -2.14,-0.33 -2.89,-0.99 -0.76,-0.67 -1.14,-1.52 -1.14,-2.54 0,-1.24 0.48,-2.21 1.42,-2.9 0.95,-0.69 2.28,-1.03 3.99,-1.03l1.99 0 0 -0.94c0,-0.71 -0.21,-1.28 -0.64,-1.7 -0.43,-0.43 -1.06,-0.64 -1.89,-0.64 -0.73,0 -1.34,0.19 -1.83,0.55 -0.49,0.37 -0.74,0.82 -0.74,1.34l-2.05 0c0,-0.6 0.21,-1.18 0.63,-1.73 0.43,-0.56 1,-1 1.73,-1.32 0.72,-0.33 1.51,-0.49 2.39,-0.49 1.37,0 2.45,0.34 3.23,1.03 0.78,0.69 1.19,1.64 1.21,2.85l0 5.5c0,1.09 0.15,1.96 0.43,2.61l0 0.18 -2.15 0zm-3.39 -1.52c0.64,0 1.25,-0.16 1.82,-0.5 0.58,-0.33 0.99,-0.77 1.25,-1.3l0 -2.47 -1.6 0c-2.5,0 -3.75,0.74 -3.75,2.22 0,0.64 0.21,1.14 0.63,1.51 0.43,0.36 0.98,0.54 1.65,0.54zm1.89 -15.4l2.48 0 -2.96 3.26 -1.65 -0.01 2.13 -3.25z"/>
   <path id="_4" class="fil4" d="M437.25 11.87c-0.31,-0.06 -0.65,-0.08 -1,-0.08 -1.35,0 -2.25,0.57 -2.73,1.71l0 8.49 -2.05 0 0 -11.94 1.99 0 0.03 1.37c0.68,-1.06 1.63,-1.6 2.85,-1.6 0.4,0 0.71,0.05 0.91,0.16l0 1.89z"/>
   <path id="_5" class="fil4" d="M441.35 21.99l-2.04 0 0 -11.94 2.04 0 0 11.94zm-2.21 -15.12c0,-0.33 0.11,-0.62 0.31,-0.85 0.2,-0.23 0.5,-0.34 0.9,-0.34 0.4,0 0.7,0.11 0.9,0.34 0.21,0.23 0.31,0.52 0.31,0.85 0,0.33 -0.1,0.61 -0.31,0.83 -0.2,0.22 -0.5,0.33 -0.9,0.33 -0.4,0 -0.7,-0.11 -0.9,-0.33 -0.2,-0.22 -0.31,-0.5 -0.31,-0.83z"/>
   <path id="_6" class="fil4" d="M444.08 15.91c0,-1.17 0.23,-2.23 0.69,-3.16 0.46,-0.94 1.1,-1.66 1.92,-2.17 0.82,-0.51 1.75,-0.76 2.81,-0.76 1.62,0 2.94,0.56 3.95,1.69 1,1.13 1.5,2.63 1.5,4.5l0 0.14c0,1.16 -0.22,2.21 -0.67,3.13 -0.44,0.93 -1.08,1.65 -1.91,2.16 -0.82,0.52 -1.78,0.77 -2.85,0.77 -1.62,0 -2.93,-0.56 -3.94,-1.68 -1,-1.13 -1.5,-2.62 -1.5,-4.48l0 -0.14zm2.05 0.24c0,1.32 0.31,2.39 0.92,3.19 0.61,0.8 1.44,1.2 2.47,1.2 1.04,0 1.86,-0.41 2.47,-1.22 0.61,-0.81 0.92,-1.95 0.92,-3.42 0,-1.31 -0.31,-2.37 -0.93,-3.18 -0.63,-0.82 -1.45,-1.23 -2.48,-1.23 -1.01,0 -1.82,0.4 -2.44,1.21 -0.62,0.8 -0.93,1.95 -0.93,3.45z"/>
   <polygon id="_7" class="fil4" points="469.62,21.99 467.57,21.99 467.57,8.38 463.45,9.89 463.45,8.03 469.3,5.84 469.62,5.84 "/>
   <rect class="fil3" x="522.85" width="27.24" height="27.24" rx="0.7" ry="4.17"/>
   <path class="fil4" d="M569.51 5.91l0 10.94c-0.01,1.51 -0.49,2.75 -1.43,3.72 -0.95,0.96 -2.23,1.51 -3.85,1.62l-0.56 0.02c-1.76,0 -3.17,-0.47 -4.21,-1.42 -1.05,-0.95 -1.58,-2.26 -1.59,-3.92l0 -10.96 2.1 0 0 10.88c0,1.17 0.31,2.07 0.96,2.72 0.64,0.64 1.55,0.96 2.74,0.96 1.19,0 2.11,-0.32 2.75,-0.96 0.64,-0.64 0.96,-1.54 0.96,-2.7l0 -10.9 2.13 0z"/>
   <path id="_1_0" class="fil4" d="M579.5 18.82c0,-0.55 -0.21,-0.98 -0.62,-1.28 -0.42,-0.31 -1.14,-0.57 -2.18,-0.79 -1.03,-0.22 -1.85,-0.49 -2.46,-0.8 -0.61,-0.31 -1.06,-0.67 -1.35,-1.1 -0.29,-0.43 -0.43,-0.94 -0.43,-1.53 0,-0.98 0.41,-1.81 1.24,-2.48 0.83,-0.68 1.89,-1.02 3.17,-1.02 1.36,0 2.46,0.35 3.3,1.05 0.84,0.7 1.27,1.59 1.27,2.68l-2.06 0c0,-0.56 -0.24,-1.04 -0.71,-1.45 -0.48,-0.4 -1.08,-0.61 -1.8,-0.61 -0.74,0 -1.32,0.17 -1.74,0.49 -0.42,0.32 -0.63,0.75 -0.63,1.27 0,0.49 0.2,0.86 0.58,1.12 0.4,0.25 1.1,0.49 2.12,0.71 1.02,0.23 1.85,0.5 2.48,0.82 0.63,0.32 1.1,0.7 1.4,1.15 0.31,0.44 0.46,0.98 0.46,1.63 0,1.07 -0.42,1.92 -1.28,2.57 -0.85,0.64 -1.96,0.96 -3.32,0.96 -0.96,0 -1.8,-0.16 -2.54,-0.5 -0.74,-0.34 -1.31,-0.81 -1.73,-1.42 -0.41,-0.61 -0.62,-1.27 -0.62,-1.97l2.04 0c0.04,0.68 0.31,1.22 0.82,1.62 0.51,0.4 1.19,0.6 2.03,0.6 0.77,0 1.39,-0.15 1.86,-0.47 0.47,-0.31 0.7,-0.73 0.7,-1.25z"/>
   <path id="_2_1" class="fil4" d="M591.58 20.81c-0.8,0.94 -1.96,1.4 -3.5,1.4 -1.28,0 -2.25,-0.36 -2.91,-1.1 -0.67,-0.75 -1.01,-1.84 -1.01,-3.29l0 -7.77 2.04 0 0 7.71c0,1.81 0.74,2.71 2.21,2.71 1.56,0 2.6,-0.58 3.11,-1.74l0 -8.68 2.05 0 0 11.94 -1.95 0 -0.04 -1.18z"/>
   <path id="_3_2" class="fil4" d="M604.05 21.99c-0.12,-0.24 -0.21,-0.65 -0.29,-1.26 -0.95,0.99 -2.08,1.48 -3.4,1.48 -1.18,0 -2.14,-0.33 -2.9,-0.99 -0.75,-0.67 -1.13,-1.52 -1.13,-2.54 0,-1.24 0.47,-2.21 1.42,-2.9 0.95,-0.69 2.28,-1.03 3.99,-1.03l1.99 0 0 -0.94c0,-0.71 -0.21,-1.28 -0.64,-1.7 -0.43,-0.43 -1.06,-0.64 -1.89,-0.64 -0.73,0 -1.34,0.19 -1.83,0.55 -0.5,0.37 -0.74,0.82 -0.74,1.34l-2.06 0c0,-0.6 0.22,-1.18 0.64,-1.73 0.42,-0.56 1,-1 1.72,-1.32 0.73,-0.33 1.52,-0.49 2.39,-0.49 1.38,0 2.46,0.34 3.24,1.03 0.78,0.69 1.19,1.64 1.21,2.85l0 5.5c0,1.09 0.15,1.96 0.42,2.61l0 0.18 -2.14 0zm-3.39 -1.52c0.64,0 1.25,-0.16 1.82,-0.5 0.58,-0.33 0.99,-0.77 1.25,-1.3l0 -2.47 -1.6 0c-2.5,0 -3.75,0.74 -3.75,2.22 0,0.64 0.21,1.14 0.63,1.51 0.43,0.36 0.98,0.54 1.65,0.54zm1.89 -15.4l2.48 0 -2.96 3.26 -1.65 -0.01 2.13 -3.25z"/>
   <path id="_4_3" class="fil4" d="M614.75 11.87c-0.31,-0.06 -0.65,-0.08 -1.01,-0.08 -1.34,0 -2.25,0.57 -2.72,1.71l0 8.49 -2.05 0 0 -11.94 1.99 0 0.03 1.37c0.67,-1.06 1.62,-1.6 2.85,-1.6 0.4,0 0.7,0.05 0.91,0.16l0 1.89z"/>
   <path id="_5_4" class="fil4" d="M618.85 21.99l-2.04 0 0 -11.94 2.04 0 0 11.94zm-2.21 -15.12c0,-0.33 0.1,-0.62 0.3,-0.85 0.21,-0.23 0.51,-0.34 0.91,-0.34 0.4,0 0.7,0.11 0.9,0.34 0.21,0.23 0.31,0.52 0.31,0.85 0,0.33 -0.1,0.61 -0.31,0.83 -0.2,0.22 -0.5,0.33 -0.9,0.33 -0.4,0 -0.7,-0.11 -0.91,-0.33 -0.2,-0.22 -0.3,-0.5 -0.3,-0.83z"/>
   <path id="_6_5" class="fil4" d="M621.57 15.91c0,-1.17 0.23,-2.23 0.69,-3.16 0.46,-0.94 1.1,-1.66 1.93,-2.17 0.81,-0.51 1.75,-0.76 2.8,-0.76 1.63,0 2.95,0.56 3.95,1.69 1.01,1.13 1.51,2.63 1.51,4.5l0 0.14c0,1.16 -0.22,2.21 -0.67,3.13 -0.44,0.93 -1.08,1.65 -1.91,2.16 -0.83,0.52 -1.78,0.77 -2.85,0.77 -1.62,0 -2.94,-0.56 -3.94,-1.68 -1.01,-1.13 -1.51,-2.62 -1.51,-4.48l0 -0.14zm2.06 0.24c0,1.32 0.3,2.39 0.92,3.19 0.61,0.8 1.44,1.2 2.47,1.2 1.03,0 1.86,-0.41 2.47,-1.22 0.61,-0.81 0.92,-1.95 0.92,-3.42 0,-1.31 -0.31,-2.37 -0.94,-3.18 -0.62,-0.82 -1.44,-1.23 -2.48,-1.23 -1,0 -1.82,0.4 -2.43,1.21 -0.62,0.8 -0.93,1.95 -0.93,3.45z"/>
   <path id="_7_6" class="fil4" d="M650.94 21.99l-10.54 0 0 -1.48 5.57 -6.18c0.83,-0.94 1.39,-1.7 1.71,-2.28 0.31,-0.59 0.47,-1.2 0.47,-1.82 0,-0.84 -0.26,-1.53 -0.77,-2.07 -0.51,-0.54 -1.18,-0.8 -2.03,-0.8 -1.02,0 -1.8,0.29 -2.37,0.86 -0.56,0.58 -0.84,1.39 -0.84,2.42l-2.05 0c0,-1.48 0.48,-2.68 1.44,-3.59 0.95,-0.91 2.22,-1.37 3.82,-1.37 1.49,0 2.68,0.39 3.55,1.18 0.87,0.78 1.3,1.83 1.3,3.13 0,1.58 -1.01,3.47 -3.03,5.65l-4.3 4.68 8.07 0 0 1.67z"/>
  </g>
  <path class="fil5" d="M215.22 249.17l-7.16 0 0 -1 3.78 -4.2c0.57,-0.64 0.95,-1.16 1.17,-1.55 0.21,-0.4 0.31,-0.82 0.31,-1.24 0,-0.57 -0.17,-1.04 -0.51,-1.41 -0.35,-0.36 -0.81,-0.54 -1.39,-0.54 -0.69,0 -1.22,0.19 -1.61,0.59 -0.38,0.39 -0.57,0.94 -0.57,1.64l-1.39 0c0,-1.01 0.32,-1.82 0.97,-2.44 0.65,-0.62 1.52,-0.93 2.6,-0.93 1.02,0 1.82,0.27 2.41,0.8 0.59,0.53 0.89,1.24 0.89,2.13 0,1.07 -0.68,2.36 -2.06,3.84l-2.92 3.18 5.48 0 0 1.13z"/>
  <path id="_1_7" class="fil5" d="M217.33 243.7l0.56 -5.46 5.6 0 0 1.29 -4.42 0 -0.33 2.98c0.53,-0.31 1.14,-0.47 1.82,-0.47 1,0 1.79,0.33 2.37,0.99 0.59,0.66 0.88,1.54 0.88,2.66 0,1.13 -0.3,2.02 -0.91,2.67 -0.61,0.65 -1.46,0.97 -2.55,0.97 -0.97,0 -1.75,-0.27 -2.37,-0.81 -0.61,-0.53 -0.95,-1.27 -1.04,-2.22l1.32 0c0.08,0.63 0.3,1.1 0.66,1.41 0.36,0.32 0.84,0.48 1.43,0.48 0.65,0 1.15,-0.22 1.52,-0.66 0.37,-0.44 0.55,-1.05 0.55,-1.82 0,-0.73 -0.2,-1.32 -0.59,-1.76 -0.4,-0.44 -0.93,-0.66 -1.59,-0.66 -0.61,0 -1.08,0.13 -1.43,0.39l-0.37 0.31 -1.11 -0.29z"/>
  <path id="_2_8" class="fil5" d="M226.77 241.06l0.04 0.89c0.6,-0.7 1.4,-1.05 2.41,-1.05 1.14,0 1.91,0.44 2.32,1.31 0.27,-0.39 0.62,-0.71 1.06,-0.95 0.43,-0.24 0.94,-0.36 1.53,-0.36 1.78,0 2.69,0.95 2.72,2.83l0 5.44 -1.39 0 0 -5.35c0,-0.58 -0.13,-1.02 -0.4,-1.3 -0.26,-0.29 -0.71,-0.43 -1.34,-0.43 -0.51,0 -0.94,0.15 -1.28,0.46 -0.34,0.31 -0.54,0.72 -0.59,1.24l0 5.38 -1.4 0 0 -5.31c0,-1.18 -0.58,-1.77 -1.73,-1.77 -0.91,0 -1.54,0.38 -1.87,1.16l0 5.92 -1.39 0 0 -8.11 1.31 0z"/>
  <path id="_3_9" class="fil5" d="M243.68 247.02c0,-0.37 -0.14,-0.67 -0.43,-0.87 -0.28,-0.21 -0.77,-0.39 -1.47,-0.54 -0.71,-0.15 -1.26,-0.33 -1.68,-0.54 -0.41,-0.21 -0.71,-0.46 -0.91,-0.75 -0.2,-0.29 -0.3,-0.64 -0.3,-1.04 0,-0.66 0.28,-1.23 0.84,-1.69 0.57,-0.46 1.29,-0.69 2.16,-0.69 0.92,0 1.67,0.24 2.24,0.71 0.58,0.48 0.86,1.09 0.86,1.83l-1.39 0c0,-0.38 -0.16,-0.71 -0.49,-0.99 -0.32,-0.27 -0.73,-0.41 -1.22,-0.41 -0.5,0 -0.9,0.11 -1.18,0.33 -0.29,0.22 -0.43,0.51 -0.43,0.86 0,0.34 0.13,0.59 0.4,0.76 0.26,0.17 0.74,0.34 1.43,0.49 0.7,0.16 1.26,0.34 1.69,0.56 0.43,0.21 0.75,0.47 0.96,0.77 0.2,0.31 0.31,0.68 0.31,1.11 0,0.73 -0.29,1.31 -0.87,1.75 -0.58,0.44 -1.33,0.66 -2.26,0.66 -0.65,0 -1.23,-0.12 -1.73,-0.35 -0.5,-0.23 -0.89,-0.55 -1.17,-0.96 -0.29,-0.41 -0.43,-0.86 -0.43,-1.34l1.39 0c0.03,0.46 0.21,0.83 0.56,1.1 0.35,0.27 0.81,0.41 1.38,0.41 0.52,0 0.95,-0.1 1.26,-0.32 0.32,-0.21 0.48,-0.49 0.48,-0.85z"/>
  <path class="fil5" d="M299.5 243.7l0.56 -5.46 5.6 0 0 1.29 -4.43 0 -0.33 2.98c0.54,-0.31 1.15,-0.47 1.83,-0.47 1,0 1.79,0.33 2.37,0.99 0.59,0.66 0.88,1.54 0.88,2.66 0,1.13 -0.3,2.02 -0.91,2.67 -0.61,0.65 -1.46,0.97 -2.55,0.97 -0.97,0 -1.75,-0.27 -2.37,-0.81 -0.61,-0.53 -0.96,-1.27 -1.04,-2.22l1.31 0c0.09,0.63 0.31,1.1 0.67,1.41 0.36,0.32 0.84,0.48 1.43,0.48 0.64,0 1.15,-0.22 1.52,-0.66 0.37,-0.44 0.55,-1.05 0.55,-1.82 0,-0.73 -0.2,-1.32 -0.6,-1.76 -0.39,-0.44 -0.92,-0.66 -1.58,-0.66 -0.61,0 -1.09,0.13 -1.43,0.39l-0.37 0.31 -1.11 -0.29z"/>
  <path id="_1_10" class="fil5" d="M314.35 244.51c0,1.63 -0.28,2.84 -0.83,3.63 -0.56,0.79 -1.43,1.19 -2.61,1.19 -1.16,0 -2.03,-0.39 -2.59,-1.16 -0.56,-0.78 -0.85,-1.93 -0.87,-3.47l0 -1.86c0,-1.6 0.28,-2.8 0.83,-3.58 0.56,-0.78 1.43,-1.17 2.62,-1.17 1.17,0 2.04,0.38 2.59,1.13 0.56,0.75 0.84,1.92 0.86,3.49l0 1.8zm-1.39 -1.9c0,-1.18 -0.16,-2.04 -0.49,-2.58 -0.33,-0.53 -0.86,-0.8 -1.57,-0.8 -0.71,0 -1.23,0.27 -1.56,0.8 -0.32,0.54 -0.49,1.36 -0.5,2.47l0 2.23c0,1.18 0.17,2.05 0.52,2.61 0.34,0.57 0.86,0.85 1.55,0.85 0.69,0 1.2,-0.27 1.53,-0.8 0.33,-0.53 0.51,-1.36 0.52,-2.51l0 -2.27z"/>
  <path id="_2_11" class="fil5" d="M317.58 241.06l0.03 0.89c0.6,-0.7 1.4,-1.05 2.41,-1.05 1.14,0 1.91,0.44 2.32,1.31 0.27,-0.39 0.63,-0.71 1.06,-0.95 0.43,-0.24 0.94,-0.36 1.53,-0.36 1.79,0 2.69,0.95 2.72,2.83l0 5.44 -1.39 0 0 -5.35c0,-0.58 -0.13,-1.02 -0.4,-1.3 -0.26,-0.29 -0.71,-0.43 -1.33,-0.43 -0.52,0 -0.95,0.15 -1.29,0.46 -0.34,0.31 -0.54,0.72 -0.59,1.24l0 5.38 -1.4 0 0 -5.31c0,-1.18 -0.57,-1.77 -1.73,-1.77 -0.91,0 -1.53,0.38 -1.87,1.16l0 5.92 -1.39 0 0 -8.11 1.32 0z"/>
  <path id="_3_12" class="fil5" d="M334.48 247.02c0,-0.37 -0.14,-0.67 -0.42,-0.87 -0.28,-0.21 -0.78,-0.39 -1.48,-0.54 -0.7,-0.15 -1.26,-0.33 -1.67,-0.54 -0.42,-0.21 -0.72,-0.46 -0.92,-0.75 -0.2,-0.29 -0.3,-0.64 -0.3,-1.04 0,-0.66 0.28,-1.23 0.85,-1.69 0.56,-0.46 1.28,-0.69 2.16,-0.69 0.92,0 1.66,0.24 2.24,0.71 0.57,0.48 0.86,1.09 0.86,1.83l-1.4 0c0,-0.38 -0.16,-0.71 -0.48,-0.99 -0.33,-0.27 -0.73,-0.41 -1.22,-0.41 -0.51,0 -0.91,0.11 -1.19,0.33 -0.29,0.22 -0.43,0.51 -0.43,0.86 0,0.34 0.14,0.59 0.4,0.76 0.27,0.17 0.74,0.34 1.44,0.49 0.69,0.16 1.25,0.34 1.68,0.56 0.43,0.21 0.75,0.47 0.96,0.77 0.21,0.31 0.31,0.68 0.31,1.11 0,0.73 -0.29,1.31 -0.87,1.75 -0.58,0.44 -1.33,0.66 -2.26,0.66 -0.65,0 -1.22,-0.12 -1.73,-0.35 -0.5,-0.23 -0.89,-0.55 -1.17,-0.96 -0.28,-0.41 -0.43,-0.86 -0.43,-1.34l1.39 0c0.03,0.46 0.22,0.83 0.56,1.1 0.35,0.27 0.81,0.41 1.38,0.41 0.53,0 0.95,-0.1 1.27,-0.32 0.31,-0.21 0.47,-0.49 0.47,-0.85z"/>
  <polygon class="fil5" points="396.72,239.02 392.2,249.17 390.74,249.17 395.25,239.38 389.34,239.38 389.34,238.24 396.72,238.24 "/>
  <path id="_1_13" class="fil5" d="M398.94 243.7l0.55 -5.46 5.6 0 0 1.29 -4.42 0 -0.33 2.98c0.54,-0.31 1.15,-0.47 1.82,-0.47 1,0 1.79,0.33 2.38,0.99 0.58,0.66 0.88,1.54 0.88,2.66 0,1.13 -0.31,2.02 -0.92,2.67 -0.6,0.65 -1.45,0.97 -2.55,0.97 -0.96,0 -1.75,-0.27 -2.36,-0.81 -0.61,-0.53 -0.96,-1.27 -1.04,-2.22l1.31 0c0.09,0.63 0.31,1.1 0.67,1.41 0.36,0.32 0.83,0.48 1.42,0.48 0.65,0 1.16,-0.22 1.53,-0.66 0.36,-0.44 0.55,-1.05 0.55,-1.82 0,-0.73 -0.2,-1.32 -0.6,-1.76 -0.4,-0.44 -0.93,-0.66 -1.59,-0.66 -0.6,0 -1.08,0.13 -1.42,0.39l-0.37 0.31 -1.11 -0.29z"/>
  <path id="_2_14" class="fil5" d="M408.38 241.06l0.04 0.89c0.59,-0.7 1.39,-1.05 2.41,-1.05 1.13,0 1.91,0.44 2.32,1.31 0.26,-0.39 0.62,-0.71 1.05,-0.95 0.43,-0.24 0.94,-0.36 1.54,-0.36 1.78,0 2.68,0.95 2.71,2.83l0 5.44 -1.39 0 0 -5.35c0,-0.58 -0.13,-1.02 -0.39,-1.3 -0.27,-0.29 -0.71,-0.43 -1.34,-0.43 -0.52,0 -0.94,0.15 -1.28,0.46 -0.34,0.31 -0.54,0.72 -0.6,1.24l0 5.38 -1.39 0 0 -5.31c0,-1.18 -0.58,-1.77 -1.74,-1.77 -0.91,0 -1.53,0.38 -1.87,1.16l0 5.92 -1.39 0 0 -8.11 1.32 0z"/>
  <path id="_3_15" class="fil5" d="M425.29 247.02c0,-0.37 -0.15,-0.67 -0.43,-0.87 -0.28,-0.21 -0.77,-0.39 -1.48,-0.54 -0.7,-0.15 -1.26,-0.33 -1.67,-0.54 -0.42,-0.21 -0.72,-0.46 -0.92,-0.75 -0.2,-0.29 -0.29,-0.64 -0.29,-1.04 0,-0.66 0.28,-1.23 0.84,-1.69 0.56,-0.46 1.28,-0.69 2.16,-0.69 0.92,0 1.67,0.24 2.24,0.71 0.57,0.48 0.86,1.09 0.86,1.83l-1.4 0c0,-0.38 -0.16,-0.71 -0.48,-0.99 -0.32,-0.27 -0.73,-0.41 -1.22,-0.41 -0.51,0 -0.9,0.11 -1.19,0.33 -0.28,0.22 -0.43,0.51 -0.43,0.86 0,0.34 0.14,0.59 0.4,0.76 0.27,0.17 0.75,0.34 1.44,0.49 0.69,0.16 1.25,0.34 1.69,0.56 0.43,0.21 0.74,0.47 0.95,0.77 0.21,0.31 0.31,0.68 0.31,1.11 0,0.73 -0.29,1.31 -0.87,1.75 -0.58,0.44 -1.33,0.66 -2.26,0.66 -0.65,0 -1.22,-0.12 -1.72,-0.35 -0.5,-0.23 -0.9,-0.55 -1.18,-0.96 -0.28,-0.41 -0.42,-0.86 -0.42,-1.34l1.38 0c0.03,0.46 0.22,0.83 0.57,1.1 0.34,0.27 0.8,0.41 1.37,0.41 0.53,0 0.95,-0.1 1.27,-0.32 0.32,-0.21 0.48,-0.49 0.48,-0.85z"/>
  <polygon class="fil5" points="480.72,249.17 479.32,249.17 479.32,239.92 476.52,240.95 476.52,239.69 480.5,238.2 480.72,238.2 "/>
  <path id="_1_16" class="fil5" d="M491.64 244.51c0,1.63 -0.28,2.84 -0.83,3.63 -0.56,0.79 -1.43,1.19 -2.61,1.19 -1.17,0 -2.03,-0.39 -2.59,-1.16 -0.56,-0.78 -0.85,-1.93 -0.87,-3.47l0 -1.86c0,-1.6 0.28,-2.8 0.83,-3.58 0.56,-0.78 1.43,-1.17 2.62,-1.17 1.17,0 2.04,0.38 2.59,1.13 0.56,0.75 0.84,1.92 0.86,3.49l0 1.8zm-1.39 -1.9c0,-1.18 -0.16,-2.04 -0.5,-2.58 -0.33,-0.53 -0.85,-0.8 -1.56,-0.8 -0.72,0 -1.23,0.27 -1.56,0.8 -0.32,0.54 -0.49,1.36 -0.5,2.47l0 2.23c0,1.18 0.17,2.05 0.51,2.61 0.34,0.57 0.86,0.85 1.56,0.85 0.69,0 1.2,-0.27 1.53,-0.8 0.33,-0.53 0.5,-1.36 0.52,-2.51l0 -2.27z"/>
  <path id="_2_17" class="fil5" d="M500.27 244.51c0,1.63 -0.27,2.84 -0.83,3.63 -0.56,0.79 -1.43,1.19 -2.6,1.19 -1.17,0 -2.03,-0.39 -2.6,-1.16 -0.56,-0.78 -0.85,-1.93 -0.87,-3.47l0 -1.86c0,-1.6 0.28,-2.8 0.84,-3.58 0.55,-0.78 1.42,-1.17 2.61,-1.17 1.18,0 2.04,0.38 2.6,1.13 0.55,0.75 0.84,1.92 0.85,3.49l0 1.8zm-1.39 -1.9c0,-1.18 -0.16,-2.04 -0.49,-2.58 -0.33,-0.53 -0.86,-0.8 -1.57,-0.8 -0.71,0 -1.23,0.27 -1.56,0.8 -0.32,0.54 -0.49,1.36 -0.5,2.47l0 2.23c0,1.18 0.17,2.05 0.52,2.61 0.34,0.57 0.86,0.85 1.56,0.85 0.68,0 1.19,-0.27 1.52,-0.8 0.34,-0.53 0.51,-1.36 0.52,-2.51l0 -2.27z"/>
  <path id="_3_18" class="fil5" d="M503.5 241.06l0.03 0.89c0.6,-0.7 1.4,-1.05 2.42,-1.05 1.13,0 1.9,0.44 2.31,1.31 0.27,-0.39 0.63,-0.71 1.06,-0.95 0.43,-0.24 0.94,-0.36 1.54,-0.36 1.78,0 2.68,0.95 2.71,2.83l0 5.44 -1.39 0 0 -5.35c0,-0.58 -0.13,-1.02 -0.39,-1.3 -0.27,-0.29 -0.71,-0.43 -1.34,-0.43 -0.52,0 -0.94,0.15 -1.29,0.46 -0.33,0.31 -0.53,0.72 -0.59,1.24l0 5.38 -1.39 0 0 -5.31c0,-1.18 -0.58,-1.77 -1.74,-1.77 -0.91,0 -1.53,0.38 -1.87,1.16l0 5.92 -1.39 0 0 -8.11 1.32 0z"/>
  <path id="_4_19" class="fil5" d="M520.4 247.02c0,-0.37 -0.14,-0.67 -0.42,-0.87 -0.28,-0.21 -0.78,-0.39 -1.48,-0.54 -0.7,-0.15 -1.26,-0.33 -1.67,-0.54 -0.42,-0.21 -0.72,-0.46 -0.92,-0.75 -0.2,-0.29 -0.3,-0.64 -0.3,-1.04 0,-0.66 0.29,-1.23 0.85,-1.69 0.56,-0.46 1.28,-0.69 2.16,-0.69 0.92,0 1.67,0.24 2.24,0.71 0.57,0.48 0.86,1.09 0.86,1.83l-1.4 0c0,-0.38 -0.16,-0.71 -0.48,-0.99 -0.33,-0.27 -0.73,-0.41 -1.22,-0.41 -0.51,0 -0.9,0.11 -1.19,0.33 -0.29,0.22 -0.43,0.51 -0.43,0.86 0,0.34 0.14,0.59 0.4,0.76 0.27,0.17 0.75,0.34 1.44,0.49 0.69,0.16 1.25,0.34 1.68,0.56 0.44,0.21 0.75,0.47 0.96,0.77 0.21,0.31 0.31,0.68 0.31,1.11 0,0.73 -0.29,1.31 -0.87,1.75 -0.58,0.44 -1.33,0.66 -2.26,0.66 -0.65,0 -1.22,-0.12 -1.73,-0.35 -0.5,-0.23 -0.89,-0.55 -1.17,-0.96 -0.28,-0.41 -0.42,-0.86 -0.42,-1.34l1.38 0c0.03,0.46 0.22,0.83 0.57,1.1 0.34,0.27 0.8,0.41 1.37,0.41 0.53,0 0.95,-0.1 1.27,-0.32 0.32,-0.21 0.47,-0.49 0.47,-0.85z"/>
  <polygon class="fil5" points="571.52,249.17 570.12,249.17 570.12,239.92 567.32,240.95 567.32,239.69 571.3,238.2 571.52,238.2 "/>
  <path id="_1_20" class="fil5" d="M582.75 249.17l-7.16 0 0 -1 3.78 -4.2c0.56,-0.64 0.95,-1.16 1.16,-1.55 0.21,-0.4 0.32,-0.82 0.32,-1.24 0,-0.57 -0.17,-1.04 -0.52,-1.41 -0.34,-0.36 -0.8,-0.54 -1.38,-0.54 -0.69,0 -1.23,0.19 -1.61,0.59 -0.38,0.39 -0.57,0.94 -0.57,1.64l-1.39 0c0,-1.01 0.32,-1.82 0.97,-2.44 0.65,-0.62 1.51,-0.93 2.6,-0.93 1.02,0 1.82,0.27 2.41,0.8 0.59,0.53 0.89,1.24 0.89,2.13 0,1.07 -0.69,2.36 -2.06,3.84l-2.93 3.18 5.49 0 0 1.13z"/>
  <path id="_2_21" class="fil5" d="M584.86 243.7l0.55 -5.46 5.61 0 0 1.29 -4.43 0 -0.33 2.98c0.54,-0.31 1.15,-0.47 1.83,-0.47 0.99,0 1.78,0.33 2.37,0.99 0.59,0.66 0.88,1.54 0.88,2.66 0,1.13 -0.31,2.02 -0.91,2.67 -0.61,0.65 -1.46,0.97 -2.55,0.97 -0.97,0 -1.76,-0.27 -2.37,-0.81 -0.61,-0.53 -0.96,-1.27 -1.04,-2.22l1.31 0c0.09,0.63 0.31,1.1 0.67,1.41 0.36,0.32 0.84,0.48 1.43,0.48 0.64,0 1.15,-0.22 1.52,-0.66 0.36,-0.44 0.55,-1.05 0.55,-1.82 0,-0.73 -0.2,-1.32 -0.6,-1.76 -0.4,-0.44 -0.93,-0.66 -1.59,-0.66 -0.6,0 -1.08,0.13 -1.42,0.39l-0.37 0.31 -1.11 -0.29z"/>
  <path id="_3_22" class="fil5" d="M594.3 241.06l0.04 0.89c0.59,-0.7 1.4,-1.05 2.41,-1.05 1.13,0 1.91,0.44 2.32,1.31 0.27,-0.39 0.62,-0.71 1.05,-0.95 0.43,-0.24 0.95,-0.36 1.54,-0.36 1.78,0 2.68,0.95 2.71,2.83l0 5.44 -1.38 0 0 -5.35c0,-0.58 -0.14,-1.02 -0.4,-1.3 -0.27,-0.29 -0.71,-0.43 -1.34,-0.43 -0.51,0 -0.94,0.15 -1.28,0.46 -0.34,0.31 -0.54,0.72 -0.6,1.24l0 5.38 -1.39 0 0 -5.31c0,-1.18 -0.58,-1.77 -1.74,-1.77 -0.91,0 -1.53,0.38 -1.87,1.16l0 5.92 -1.38 0 0 -8.11 1.31 0z"/>
  <path id="_4_23" class="fil5" d="M611.21 247.02c0,-0.37 -0.14,-0.67 -0.43,-0.87 -0.28,-0.21 -0.77,-0.39 -1.48,-0.54 -0.7,-0.15 -1.26,-0.33 -1.67,-0.54 -0.41,-0.21 -0.72,-0.46 -0.92,-0.75 -0.2,-0.29 -0.29,-0.64 -0.29,-1.04 0,-0.66 0.28,-1.23 0.84,-1.69 0.56,-0.46 1.28,-0.69 2.16,-0.69 0.92,0 1.67,0.24 2.24,0.71 0.57,0.48 0.86,1.09 0.86,1.83l-1.4 0c0,-0.38 -0.16,-0.71 -0.48,-0.99 -0.32,-0.27 -0.73,-0.41 -1.22,-0.41 -0.51,0 -0.9,0.11 -1.19,0.33 -0.28,0.22 -0.42,0.51 -0.42,0.86 0,0.34 0.13,0.59 0.39,0.76 0.27,0.17 0.75,0.34 1.44,0.49 0.7,0.16 1.26,0.34 1.69,0.56 0.43,0.21 0.75,0.47 0.95,0.77 0.21,0.31 0.32,0.68 0.32,1.11 0,0.73 -0.29,1.31 -0.88,1.75 -0.57,0.44 -1.33,0.66 -2.26,0.66 -0.65,0 -1.22,-0.12 -1.72,-0.35 -0.5,-0.23 -0.89,-0.55 -1.18,-0.96 -0.28,-0.41 -0.42,-0.86 -0.42,-1.34l1.39 0c0.02,0.46 0.21,0.83 0.56,1.1 0.34,0.27 0.81,0.41 1.37,0.41 0.53,0 0.95,-0.1 1.27,-0.32 0.32,-0.21 0.48,-0.49 0.48,-0.85z"/>
  <polygon class="fil5" points="662.32,249.17 660.92,249.17 660.92,239.92 658.12,240.95 658.12,239.69 662.1,238.2 662.32,238.2 "/>
  <path id="_1_24" class="fil5" d="M667.03 243.7l0.55 -5.46 5.6 0 0 1.29 -4.42 0 -0.33 2.98c0.54,-0.31 1.15,-0.47 1.82,-0.47 1,0 1.79,0.33 2.38,0.99 0.58,0.66 0.88,1.54 0.88,2.66 0,1.13 -0.31,2.02 -0.92,2.67 -0.6,0.65 -1.45,0.97 -2.55,0.97 -0.96,0 -1.75,-0.27 -2.36,-0.81 -0.61,-0.53 -0.96,-1.27 -1.04,-2.22l1.31 0c0.09,0.63 0.31,1.1 0.67,1.41 0.36,0.32 0.84,0.48 1.42,0.48 0.65,0 1.16,-0.22 1.53,-0.66 0.36,-0.44 0.55,-1.05 0.55,-1.82 0,-0.73 -0.2,-1.32 -0.6,-1.76 -0.4,-0.44 -0.93,-0.66 -1.59,-0.66 -0.6,0 -1.08,0.13 -1.42,0.39l-0.37 0.31 -1.11 -0.29z"/>
  <path id="_2_25" class="fil5" d="M681.88 244.51c0,1.63 -0.28,2.84 -0.84,3.63 -0.55,0.79 -1.42,1.19 -2.6,1.19 -1.17,0 -2.03,-0.39 -2.59,-1.16 -0.56,-0.78 -0.85,-1.93 -0.87,-3.47l0 -1.86c0,-1.6 0.27,-2.8 0.83,-3.58 0.56,-0.78 1.43,-1.17 2.61,-1.17 1.18,0 2.05,0.38 2.6,1.13 0.56,0.75 0.84,1.92 0.86,3.49l0 1.8zm-1.39 -1.9c0,-1.18 -0.17,-2.04 -0.5,-2.58 -0.33,-0.53 -0.85,-0.8 -1.57,-0.8 -0.71,0 -1.23,0.27 -1.55,0.8 -0.33,0.54 -0.49,1.36 -0.5,2.47l0 2.23c0,1.18 0.17,2.05 0.51,2.61 0.34,0.57 0.86,0.85 1.56,0.85 0.68,0 1.19,-0.27 1.53,-0.8 0.33,-0.53 0.5,-1.36 0.52,-2.51l0 -2.27z"/>
  <path id="_3_26" class="fil5" d="M685.1 241.06l0.04 0.89c0.6,-0.7 1.4,-1.05 2.41,-1.05 1.14,0 1.91,0.44 2.32,1.31 0.27,-0.39 0.62,-0.71 1.06,-0.95 0.43,-0.24 0.94,-0.36 1.53,-0.36 1.78,0 2.69,0.95 2.72,2.83l0 5.44 -1.39 0 0 -5.35c0,-0.58 -0.14,-1.02 -0.4,-1.3 -0.27,-0.29 -0.71,-0.43 -1.34,-0.43 -0.51,0 -0.94,0.15 -1.28,0.46 -0.34,0.31 -0.54,0.72 -0.59,1.24l0 5.38 -1.4 0 0 -5.31c0,-1.18 -0.58,-1.77 -1.73,-1.77 -0.91,0 -1.54,0.38 -1.87,1.16l0 5.92 -1.39 0 0 -8.11 1.31 0z"/>
  <path id="_4_27" class="fil5" d="M702.01 247.02c0,-0.37 -0.14,-0.67 -0.43,-0.87 -0.28,-0.21 -0.77,-0.39 -1.48,-0.54 -0.7,-0.15 -1.26,-0.33 -1.67,-0.54 -0.41,-0.21 -0.72,-0.46 -0.91,-0.75 -0.2,-0.29 -0.3,-0.64 -0.3,-1.04 0,-0.66 0.28,-1.23 0.84,-1.69 0.57,-0.46 1.29,-0.69 2.16,-0.69 0.92,0 1.67,0.24 2.24,0.71 0.58,0.48 0.86,1.09 0.86,1.83l-1.39 0c0,-0.38 -0.16,-0.71 -0.49,-0.99 -0.32,-0.27 -0.73,-0.41 -1.22,-0.41 -0.5,0 -0.9,0.11 -1.18,0.33 -0.29,0.22 -0.43,0.51 -0.43,0.86 0,0.34 0.13,0.59 0.4,0.76 0.26,0.17 0.74,0.34 1.43,0.49 0.7,0.16 1.26,0.34 1.69,0.56 0.43,0.21 0.75,0.47 0.96,0.77 0.2,0.31 0.31,0.68 0.31,1.11 0,0.73 -0.29,1.31 -0.87,1.75 -0.58,0.44 -1.34,0.66 -2.26,0.66 -0.65,0 -1.23,-0.12 -1.73,-0.35 -0.5,-0.23 -0.89,-0.55 -1.17,-0.96 -0.29,-0.41 -0.43,-0.86 -0.43,-1.34l1.39 0c0.02,0.46 0.21,0.83 0.56,1.1 0.35,0.27 0.81,0.41 1.38,0.41 0.52,0 0.94,-0.1 1.26,-0.32 0.32,-0.21 0.48,-0.49 0.48,-0.85z"/>
  <polygon class="fil5" points="753.12,249.17 751.73,249.17 751.73,239.92 748.93,240.95 748.93,239.69 752.91,238.2 753.12,238.2 "/>
  <polygon id="_1_28" class="fil5" points="764.25,239.02 759.72,249.17 758.26,249.17 762.78,239.38 756.86,239.38 756.86,238.24 764.25,238.24 "/>
  <path id="_2_29" class="fil5" d="M766.46 243.7l0.56 -5.46 5.6 0 0 1.29 -4.42 0 -0.33 2.98c0.53,-0.31 1.14,-0.47 1.82,-0.47 1,0 1.79,0.33 2.37,0.99 0.59,0.66 0.88,1.54 0.88,2.66 0,1.13 -0.3,2.02 -0.91,2.67 -0.61,0.65 -1.46,0.97 -2.55,0.97 -0.97,0 -1.75,-0.27 -2.36,-0.81 -0.61,-0.53 -0.96,-1.27 -1.05,-2.22l1.32 0c0.08,0.63 0.3,1.1 0.67,1.41 0.35,0.32 0.83,0.48 1.42,0.48 0.65,0 1.15,-0.22 1.52,-0.66 0.37,-0.44 0.55,-1.05 0.55,-1.82 0,-0.73 -0.2,-1.32 -0.59,-1.76 -0.4,-0.44 -0.93,-0.66 -1.59,-0.66 -0.61,0 -1.08,0.13 -1.43,0.39l-0.37 0.31 -1.11 -0.29z"/>
  <path id="_3_30" class="fil5" d="M775.91 241.06l0.03 0.89c0.6,-0.7 1.4,-1.05 2.41,-1.05 1.14,0 1.91,0.44 2.32,1.31 0.27,-0.39 0.62,-0.71 1.06,-0.95 0.43,-0.24 0.94,-0.36 1.53,-0.36 1.78,0 2.69,0.95 2.72,2.83l0 5.44 -1.39 0 0 -5.35c0,-0.58 -0.13,-1.02 -0.4,-1.3 -0.26,-0.29 -0.71,-0.43 -1.33,-0.43 -0.52,0 -0.95,0.15 -1.29,0.46 -0.34,0.31 -0.54,0.72 -0.59,1.24l0 5.38 -1.4 0 0 -5.31c0,-1.18 -0.58,-1.77 -1.73,-1.77 -0.91,0 -1.53,0.38 -1.87,1.16l0 5.92 -1.39 0 0 -8.11 1.32 0z"/>
  <path id="_4_31" class="fil5" d="M792.81 247.02c0,-0.37 -0.14,-0.67 -0.42,-0.87 -0.29,-0.21 -0.78,-0.39 -1.48,-0.54 -0.7,-0.15 -1.26,-0.33 -1.68,-0.54 -0.41,-0.21 -0.71,-0.46 -0.91,-0.75 -0.2,-0.29 -0.3,-0.64 -0.3,-1.04 0,-0.66 0.28,-1.23 0.84,-1.69 0.57,-0.46 1.29,-0.69 2.17,-0.69 0.92,0 1.66,0.24 2.24,0.71 0.57,0.48 0.86,1.09 0.86,1.83l-1.4 0c0,-0.38 -0.16,-0.71 -0.49,-0.99 -0.32,-0.27 -0.73,-0.41 -1.21,-0.41 -0.51,0 -0.91,0.11 -1.19,0.33 -0.29,0.22 -0.43,0.51 -0.43,0.86 0,0.34 0.13,0.59 0.4,0.76 0.26,0.17 0.74,0.34 1.44,0.49 0.69,0.16 1.25,0.34 1.68,0.56 0.43,0.21 0.75,0.47 0.96,0.77 0.21,0.31 0.31,0.68 0.31,1.11 0,0.73 -0.29,1.31 -0.87,1.75 -0.58,0.44 -1.33,0.66 -2.26,0.66 -0.65,0 -1.23,-0.12 -1.73,-0.35 -0.5,-0.23 -0.89,-0.55 -1.17,-0.96 -0.28,-0.41 -0.43,-0.86 -0.43,-1.34l1.39 0c0.03,0.46 0.21,0.83 0.56,1.1 0.35,0.27 0.81,0.41 1.38,0.41 0.52,0 0.95,-0.1 1.26,-0.32 0.32,-0.21 0.48,-0.49 0.48,-0.85z"/>
  <path class="fil5" d="M846.52 249.17l-7.16 0 0 -1 3.78 -4.2c0.57,-0.64 0.95,-1.16 1.16,-1.55 0.22,-0.4 0.32,-0.82 0.32,-1.24 0,-0.57 -0.17,-1.04 -0.52,-1.41 -0.34,-0.36 -0.8,-0.54 -1.38,-0.54 -0.69,0 -1.22,0.19 -1.61,0.59 -0.38,0.39 -0.57,0.94 -0.57,1.64l-1.39 0c0,-1.01 0.32,-1.82 0.97,-2.44 0.65,-0.62 1.52,-0.93 2.6,-0.93 1.02,0 1.82,0.27 2.41,0.8 0.59,0.53 0.89,1.24 0.89,2.13 0,1.07 -0.68,2.36 -2.06,3.84l-2.93 3.18 5.49 0 0 1.13z"/>
  <path id="_1_32" class="fil5" d="M854.85 244.51c0,1.63 -0.28,2.84 -0.84,3.63 -0.55,0.79 -1.42,1.19 -2.6,1.19 -1.17,0 -2.03,-0.39 -2.59,-1.16 -0.56,-0.78 -0.85,-1.93 -0.87,-3.47l0 -1.86c0,-1.6 0.28,-2.8 0.83,-3.58 0.56,-0.78 1.43,-1.17 2.62,-1.17 1.17,0 2.04,0.38 2.59,1.13 0.56,0.75 0.84,1.92 0.86,3.49l0 1.8zm-1.39 -1.9c0,-1.18 -0.17,-2.04 -0.5,-2.58 -0.33,-0.53 -0.85,-0.8 -1.56,-0.8 -0.72,0 -1.23,0.27 -1.56,0.8 -0.33,0.54 -0.49,1.36 -0.5,2.47l0 2.23c0,1.18 0.17,2.05 0.51,2.61 0.34,0.57 0.86,0.85 1.56,0.85 0.69,0 1.2,-0.27 1.53,-0.8 0.33,-0.53 0.5,-1.36 0.52,-2.51l0 -2.27z"/>
  <path id="_2_33" class="fil5" d="M863.48 244.51c0,1.63 -0.28,2.84 -0.83,3.63 -0.56,0.79 -1.43,1.19 -2.61,1.19 -1.16,0 -2.02,-0.39 -2.59,-1.16 -0.56,-0.78 -0.85,-1.93 -0.87,-3.47l0 -1.86c0,-1.6 0.28,-2.8 0.84,-3.58 0.55,-0.78 1.42,-1.17 2.61,-1.17 1.18,0 2.04,0.38 2.6,1.13 0.55,0.75 0.84,1.92 0.85,3.49l0 1.8zm-1.39 -1.9c0,-1.18 -0.16,-2.04 -0.49,-2.58 -0.33,-0.53 -0.86,-0.8 -1.57,-0.8 -0.71,0 -1.23,0.27 -1.56,0.8 -0.32,0.54 -0.49,1.36 -0.5,2.47l0 2.23c0,1.18 0.17,2.05 0.52,2.61 0.34,0.57 0.86,0.85 1.55,0.85 0.69,0 1.2,-0.27 1.53,-0.8 0.34,-0.53 0.51,-1.36 0.52,-2.51l0 -2.27z"/>
  <path id="_3_34" class="fil5" d="M866.71 241.06l0.03 0.89c0.6,-0.7 1.4,-1.05 2.42,-1.05 1.13,0 1.9,0.44 2.31,1.31 0.27,-0.39 0.63,-0.71 1.06,-0.95 0.43,-0.24 0.94,-0.36 1.54,-0.36 1.78,0 2.68,0.95 2.71,2.83l0 5.44 -1.39 0 0 -5.35c0,-0.58 -0.13,-1.02 -0.39,-1.3 -0.27,-0.29 -0.71,-0.43 -1.34,-0.43 -0.52,0 -0.95,0.15 -1.29,0.46 -0.33,0.31 -0.53,0.72 -0.59,1.24l0 5.38 -1.39 0 0 -5.31c0,-1.18 -0.58,-1.77 -1.74,-1.77 -0.91,0 -1.53,0.38 -1.87,1.16l0 5.92 -1.39 0 0 -8.11 1.32 0z"/>
  <path id="_4_35" class="fil5" d="M883.61 247.02c0,-0.37 -0.14,-0.67 -0.42,-0.87 -0.28,-0.21 -0.78,-0.39 -1.48,-0.54 -0.7,-0.15 -1.26,-0.33 -1.67,-0.54 -0.42,-0.21 -0.72,-0.46 -0.92,-0.75 -0.2,-0.29 -0.3,-0.64 -0.3,-1.04 0,-0.66 0.29,-1.23 0.85,-1.69 0.56,-0.46 1.28,-0.69 2.16,-0.69 0.92,0 1.67,0.24 2.24,0.71 0.57,0.48 0.86,1.09 0.86,1.83l-1.4 0c0,-0.38 -0.16,-0.71 -0.48,-0.99 -0.33,-0.27 -0.73,-0.41 -1.22,-0.41 -0.51,0 -0.9,0.11 -1.19,0.33 -0.29,0.22 -0.43,0.51 -0.43,0.86 0,0.34 0.14,0.59 0.4,0.76 0.27,0.17 0.75,0.34 1.44,0.49 0.69,0.16 1.25,0.34 1.68,0.56 0.43,0.21 0.75,0.47 0.96,0.77 0.21,0.31 0.31,0.68 0.31,1.11 0,0.73 -0.29,1.31 -0.87,1.75 -0.58,0.44 -1.33,0.66 -2.26,0.66 -0.65,0 -1.22,-0.12 -1.73,-0.35 -0.5,-0.23 -0.89,-0.55 -1.17,-0.96 -0.28,-0.41 -0.43,-0.86 -0.43,-1.34l1.39 0c0.03,0.46 0.22,0.83 0.57,1.1 0.34,0.27 0.8,0.41 1.37,0.41 0.53,0 0.95,-0.1 1.27,-0.32 0.31,-0.21 0.47,-0.49 0.47,-0.85z"/>
  <line class="fil6 str0" x1="498.88" y1="226.11" x2="498.88" y2= "44.51" />
  <line class="fil6 str0" x1="862.09" y1="226.11" x2="862.09" y2= "44.51" />
  <line class="fil6 str1" x1="135.67" y1="226.11" x2="885.21" y2= "226.11" />
  <polygon class="fil5" points="475.28,268.84 470.54,268.84 470.54,281.71 467.36,281.71 467.36,268.84 462.69,268.84 462.69,266.26 475.28,266.26 "/>
  <polygon id="_1_36" class="fil5" points="486.39,274.99 480.28,274.99 480.28,279.14 487.45,279.14 487.45,281.71 477.09,281.71 477.09,266.26 487.43,266.26 487.43,268.84 480.28,268.84 480.28,272.51 486.39,272.51 "/>
  <polygon id="_2_37" class="fil5" points="493.48,266.26 497.45,277.46 501.4,266.26 505.58,266.26 505.58,281.71 502.38,281.71 502.38,277.48 502.7,270.19 498.53,281.71 496.34,281.71 492.18,270.2 492.5,277.48 492.5,281.71 489.32,281.71 489.32,266.26 "/>
  <path id="_3_38" class="fil5" d="M511.54 276.28l0 5.43 -3.18 0 0 -15.45 6.03 0c1.16,0 2.18,0.21 3.06,0.63 0.88,0.43 1.55,1.03 2.03,1.81 0.47,0.79 0.71,1.68 0.71,2.68 0,1.51 -0.52,2.71 -1.55,3.58 -1.04,0.88 -2.48,1.32 -4.31,1.32l-2.79 0zm0 -2.59l2.85 0c0.84,0 1.48,-0.2 1.92,-0.6 0.45,-0.39 0.67,-0.96 0.67,-1.69 0,-0.76 -0.23,-1.37 -0.67,-1.84 -0.45,-0.46 -1.07,-0.7 -1.85,-0.72l-2.92 0 0 4.85z"/>
  <path id="_4_39" class="fil5" d="M535.07 274.33c0,1.52 -0.27,2.86 -0.81,4.01 -0.54,1.14 -1.31,2.03 -2.31,2.65 -1,0.62 -2.15,0.94 -3.44,0.94 -1.29,0 -2.43,-0.31 -3.43,-0.93 -1.01,-0.61 -1.79,-1.49 -2.34,-2.64 -0.55,-1.14 -0.83,-2.45 -0.83,-3.94l0 -0.77c0,-1.52 0.27,-2.86 0.82,-4.02 0.55,-1.15 1.32,-2.04 2.32,-2.66 1,-0.62 2.15,-0.93 3.43,-0.93 1.29,0 2.44,0.31 3.44,0.93 1,0.62 1.77,1.51 2.32,2.66 0.55,1.16 0.83,2.5 0.83,4.01l0 0.69zm-3.23 -0.7c0,-1.62 -0.29,-2.85 -0.87,-3.7 -0.58,-0.84 -1.41,-1.26 -2.49,-1.26 -1.06,0 -1.89,0.41 -2.47,1.25 -0.58,0.83 -0.87,2.05 -0.88,3.66l0 0.75c0,1.58 0.29,2.81 0.87,3.68 0.58,0.87 1.42,1.31 2.51,1.31 1.07,0 1.88,-0.42 2.46,-1.26 0.57,-0.84 0.86,-2.06 0.87,-3.67l0 -0.76z"/>
  <polygon class="fil6 str1" points="894.14,226.11 889.68,228.69 885.21,231.27 885.21,226.11 885.21,220.96 889.68,223.53 "/>
  <line class="fil6 str2" x1="135.67" y1="226.11" x2="135.67" y2= "44.51" />
  <polygon class="fil7" points="9.3,125.6 3.18,125.6 3.18,131.93 0,131.93 0,116.47 10.06,116.47 10.06,119.06 3.18,119.06 3.18,123.04 9.3,123.04 "/>
  <path id="_1_40" class="fil7" d="M17.62 126.28l-2.53 0 0 5.65 -3.19 0 0 -15.46 5.75 0c1.82,0 3.23,0.41 4.22,1.22 0.99,0.82 1.48,1.97 1.48,3.46 0,1.05 -0.22,1.93 -0.68,2.63 -0.46,0.71 -1.14,1.27 -2.07,1.69l3.34 6.31 0 0.15 -3.42 0 -2.9 -5.65zm-2.53 -2.59l2.57 0c0.8,0 1.42,-0.2 1.85,-0.61 0.44,-0.4 0.66,-0.97 0.66,-1.68 0,-0.73 -0.21,-1.3 -0.62,-1.71 -0.41,-0.42 -1.05,-0.63 -1.9,-0.63l-2.56 0 0 4.63z"/>
  <path id="_2_41" class="fil7" d="M34.5 128.75l-5.58 0 -1.06 3.18 -3.39 0 5.75 -15.46 2.96 0 5.78 15.46 -3.39 0 -1.07 -3.18zm-4.72 -2.58l3.86 0 -1.94 -5.79 -1.92 5.79z"/>
  <path id="_3_42" class="fil7" d="M52.31 126.79c-0.12,1.66 -0.73,2.97 -1.84,3.92 -1.11,0.96 -2.57,1.43 -4.38,1.43 -1.98,0 -3.54,-0.66 -4.67,-2 -1.14,-1.33 -1.71,-3.16 -1.71,-5.49l0 -0.95c0,-1.48 0.26,-2.8 0.79,-3.93 0.52,-1.13 1.27,-2 2.24,-2.6 0.98,-0.61 2.11,-0.91 3.39,-0.91 1.79,0 3.22,0.47 4.31,1.43 1.09,0.95 1.72,2.29 1.89,4.02l-3.18 0c-0.08,-1 -0.36,-1.72 -0.84,-2.17 -0.47,-0.45 -1.2,-0.68 -2.18,-0.68 -1.06,0 -1.85,0.38 -2.38,1.15 -0.53,0.76 -0.79,1.94 -0.81,3.54l0 1.16c0,1.67 0.25,2.9 0.76,3.67 0.51,0.77 1.3,1.16 2.39,1.16 0.99,0 1.72,-0.23 2.21,-0.67 0.48,-0.45 0.76,-1.15 0.83,-2.08l3.18 0zm-5.04 5.07l-0.12 0.61c1.07,0.2 1.6,0.81 1.6,1.84 0,0.78 -0.33,1.4 -0.98,1.85 -0.64,0.45 -1.55,0.68 -2.73,0.68l-0.07 -1.78c0.79,0 1.19,-0.29 1.19,-0.86 0,-0.3 -0.12,-0.5 -0.36,-0.61 -0.24,-0.11 -0.62,-0.18 -1.15,-0.21l0.33 -1.52 2.29 0z"/>
  <path id="_4_43" class="fil7" d="M63.13 128.75l-5.59 0 -1.06 3.18 -3.38 0 5.75 -15.46 2.95 0 5.79 15.46 -3.39 0 -1.07 -3.18zm-4.73 -2.58l3.87 0 -1.94 -5.79 -1.93 5.79zm5.97 -13.66c0,0.79 -0.24,1.46 -0.7,2 -0.47,0.54 -1.04,0.81 -1.71,0.81 -0.27,0 -0.51,-0.03 -0.72,-0.09 -0.21,-0.06 -0.5,-0.19 -0.87,-0.39 -0.36,-0.2 -0.63,-0.32 -0.79,-0.36 -0.16,-0.05 -0.34,-0.07 -0.53,-0.07 -0.25,0 -0.46,0.09 -0.63,0.26 -0.18,0.18 -0.26,0.43 -0.26,0.76l-1.79 -0.11c0,-0.78 0.24,-1.45 0.7,-2 0.46,-0.55 1.03,-0.82 1.7,-0.82 0.21,0 0.42,0.02 0.6,0.08 0.19,0.05 0.5,0.17 0.92,0.38 0.42,0.2 0.72,0.32 0.88,0.37 0.16,0.04 0.33,0.06 0.51,0.06 0.25,0 0.46,-0.09 0.64,-0.26 0.18,-0.17 0.27,-0.42 0.27,-0.74l1.78 0.12z"/>
  <path id="_5_44" class="fil7" d="M81.5 124.55c0,1.52 -0.28,2.86 -0.81,4 -0.54,1.15 -1.31,2.04 -2.31,2.66 -1,0.62 -2.15,0.93 -3.44,0.93 -1.29,0 -2.43,-0.3 -3.43,-0.92 -1.01,-0.62 -1.79,-1.5 -2.34,-2.64 -0.55,-1.14 -0.83,-2.46 -0.83,-3.95l0 -0.76c0,-1.52 0.27,-2.86 0.82,-4.02 0.55,-1.16 1.32,-2.04 2.32,-2.66 1,-0.62 2.15,-0.93 3.43,-0.93 1.29,0 2.44,0.31 3.44,0.93 1,0.62 1.77,1.5 2.32,2.66 0.55,1.16 0.83,2.5 0.83,4.01l0 0.69zm-3.23 -0.7c0,-1.62 -0.29,-2.86 -0.87,-3.7 -0.58,-0.84 -1.41,-1.26 -2.49,-1.26 -1.06,0 -1.89,0.41 -2.47,1.25 -0.58,0.83 -0.87,2.05 -0.88,3.66l0 0.75c0,1.58 0.29,2.81 0.87,3.68 0.58,0.87 1.42,1.31 2.51,1.31 1.06,0 1.88,-0.42 2.46,-1.26 0.57,-0.84 0.86,-2.07 0.87,-3.67l0 -0.76z"/>
  <path id="_6_45" class="fil7" d="M3.66 158.01l0 -15.45 4.76 0c1.36,0 2.57,0.3 3.64,0.92 1.08,0.61 1.91,1.48 2.52,2.61 0.6,1.13 0.9,2.41 0.9,3.84l0 0.72c0,1.43 -0.3,2.71 -0.89,3.83 -0.59,1.12 -1.42,1.98 -2.5,2.6 -1.08,0.61 -2.29,0.93 -3.64,0.93l-4.79 0zm3.19 -12.86l0 10.3 1.54 0c1.24,0 2.19,-0.41 2.85,-1.22 0.66,-0.81 0.99,-1.98 1.01,-3.49l0 -0.81c0,-1.57 -0.33,-2.76 -0.98,-3.57 -0.65,-0.81 -1.6,-1.21 -2.85,-1.21l-1.57 0z"/>
  <path id="_7_46" class="fil7" d="M26.29 154.84l-5.58 0 -1.06 3.17 -3.39 0 5.75 -15.45 2.95 0 5.79 15.45 -3.39 0 -1.07 -3.17zm-4.72 -2.59l3.86 0 -1.94 -5.79 -1.92 5.79z"/>
  <path id="_8" class="fil7" d="M49.73 152.87c-0.12,1.67 -0.73,2.97 -1.84,3.93 -1.1,0.95 -2.56,1.43 -4.37,1.43 -1.99,0 -3.54,-0.67 -4.68,-2 -1.13,-1.34 -1.7,-3.17 -1.7,-5.5l0 -0.94c0,-1.49 0.26,-2.8 0.78,-3.93 0.52,-1.13 1.27,-2 2.24,-2.61 0.98,-0.6 2.11,-0.91 3.4,-0.91 1.78,0 3.22,0.48 4.31,1.43 1.09,0.96 1.72,2.3 1.88,4.03l-3.18 0c-0.08,-1 -0.36,-1.73 -0.83,-2.18 -0.48,-0.45 -1.21,-0.67 -2.18,-0.67 -1.07,0 -1.86,0.38 -2.38,1.14 -0.53,0.76 -0.8,1.94 -0.82,3.54l0 1.17c0,1.67 0.25,2.89 0.76,3.66 0.51,0.77 1.31,1.16 2.4,1.16 0.98,0 1.71,-0.22 2.2,-0.67 0.48,-0.45 0.76,-1.14 0.83,-2.08l3.18 0z"/>
  <path id="_9" class="fil7" d="M55.01 152.58l0 5.43 -3.18 0 0 -15.45 6.02 0c1.16,0 2.18,0.21 3.06,0.64 0.89,0.42 1.56,1.03 2.04,1.81 0.47,0.78 0.71,1.67 0.71,2.67 0,1.52 -0.52,2.71 -1.56,3.59 -1.03,0.87 -2.47,1.31 -4.3,1.31l-2.79 0zm0 -2.59l2.84 0c0.84,0 1.49,-0.2 1.93,-0.59 0.44,-0.4 0.66,-0.96 0.66,-1.7 0,-0.75 -0.22,-1.37 -0.67,-1.83 -0.44,-0.47 -1.06,-0.71 -1.84,-0.72l-2.92 0 0 4.84z"/>
  <path id="_10" class="fil7" d="M77.54 142.56l0 10.18c0,1.69 -0.53,3.03 -1.59,4.02 -1.06,0.98 -2.5,1.47 -4.33,1.47 -1.81,0 -3.24,-0.48 -4.3,-1.43 -1.07,-0.96 -1.61,-2.27 -1.63,-3.94l0 -10.3 3.19 0 0 10.2c0,1.01 0.24,1.75 0.73,2.21 0.48,0.46 1.15,0.7 2.01,0.7 1.79,0 2.69,-0.95 2.72,-2.83l0 -10.28 3.2 0z"/>
  <line class="fil6 str2" x1="144.55" y1="44.51" x2="126.78" y2= "44.51" />
  <path class="fil8" d="M108.82 167.67l-2.2 -1.19 11.12 -17.81 2.2 1.19 -11.12 17.81zm13.15 -3.27l1.38 0 0 2.63 -1.38 0 0 2.46 -3.21 0 0 -2.46 -5.41 0 -0.19 -2.13 5.58 -7.74 3.23 0 0 7.24zm-5.75 0l2.54 0 0 -3.31 -0.22 0.34 -2.32 2.97zm-12.11 -12.72l1.28 0c1.24,0 1.86,-0.45 1.86,-1.38 0,-0.37 -0.15,-0.66 -0.44,-0.88 -0.3,-0.22 -0.7,-0.33 -1.22,-0.33 -0.43,0 -0.81,0.08 -1.12,0.25 -0.3,0.16 -0.46,0.4 -0.46,0.71l-3.21 0c0,-1.07 0.45,-1.92 1.33,-2.56 0.88,-0.64 2,-0.96 3.37,-0.96 1.51,0 2.71,0.31 3.61,0.93 0.89,0.62 1.33,1.48 1.33,2.6 0,1.23 -0.7,2.12 -2.11,2.63 1.57,0.43 2.35,1.39 2.35,2.89 0,1.1 -0.48,1.97 -1.43,2.64 -0.96,0.66 -2.21,0.99 -3.75,0.99 -1.48,0 -2.67,-0.34 -3.57,-1.04 -0.9,-0.69 -1.34,-1.63 -1.34,-2.82l3.22 0c0,0.35 0.18,0.66 0.53,0.92 0.36,0.25 0.8,0.38 1.34,0.38 0.63,0 1.08,-0.14 1.36,-0.42 0.28,-0.27 0.42,-0.6 0.42,-0.97 0,-0.96 -0.64,-1.45 -1.91,-1.46l-1.44 0 0 -2.12z"/>
  <path class="fil9" d="M108.02 68.17l-3.19 0 0 -8.59 -2.95 0.65 0 -2.47 5.84 -1.89 0.3 0 0 12.3zm-0.55 8.55l-2.21 -1.19 11.12 -17.8 2.21 1.19 -11.12 17.8zm13.21 -3.27l1.37 0 0 2.63 -1.37 0 0 2.47 -3.21 0 0 -2.47 -5.42 0 -0.18 -2.12 5.58 -7.74 3.23 0 0 7.23zm-5.75 0l2.54 0 0 -3.31 -0.22 0.34 -2.32 2.97z"/>
 </g>
</svg>
